<svg width="292" height="107" viewBox="0 0 292 107" fill="none" xmlns="http://www.w3.org/2000/svg">
<g clip-path="url(#clip0_1_2)">
<rect width="291.85" height="106.23" fill="white"/>
<path d="M128.15 68.72C129.55 70.5 130.26 72.54 130.26 74.83C130.26 76.9 129.75 78.72 128.73 80.3C127.71 81.87 126.24 83.11 124.31 84C122.39 84.89 120.11 85.33 117.48 85.33H100.77V46.57H116.76C119.39 46.57 121.66 46.99 123.56 47.85C125.46 48.71 126.91 49.89 127.89 51.41C128.87 52.93 129.36 54.65 129.36 56.57C129.36 58.83 128.75 60.72 127.55 62.24C126.35 63.76 124.74 64.83 122.75 65.46C124.93 65.87 126.73 66.96 128.14 68.74L128.15 68.72ZM108.54 62.55H115.65C117.5 62.55 118.93 62.14 119.92 61.3C120.92 60.47 121.42 59.27 121.42 57.72C121.42 56.17 120.92 54.96 119.92 54.11C118.92 53.26 117.5 52.83 115.65 52.83H108.54V62.55ZM120.79 77.66C121.85 76.77 122.38 75.51 122.38 73.88C122.38 72.25 121.82 70.91 120.71 69.96C119.6 69.02 118.1 68.55 116.21 68.55H108.55V78.99H116.38C118.27 78.99 119.74 78.54 120.79 77.66Z" fill="black"/>
<path d="M175.68 46.56V85.32H167.9V60.11L157.52 85.32H151.63L141.19 60.11V85.32H133.42V46.56H142.25L154.58 75.38L166.91 46.56H175.68Z" fill="black"/>
<path d="M204.59 48.95C207.68 50.54 210.07 52.81 211.75 55.75C213.44 58.69 214.28 62.11 214.28 66C214.28 69.89 213.44 73.28 211.75 76.19C210.06 79.1 207.68 81.35 204.59 82.94C201.5 84.53 197.92 85.33 193.85 85.33H180.3V46.57H193.85C197.92 46.57 201.5 47.37 204.59 48.96V48.95ZM203.01 75.38C205.23 73.16 206.34 70.03 206.34 66C206.34 61.97 205.23 58.81 203.01 56.53C200.79 54.25 197.64 53.12 193.57 53.12H188.07V78.72H193.57C197.65 78.72 200.79 77.61 203.01 75.39V75.38Z" fill="black"/>
<path d="M237.05 85.32L228.5 70.21H224.83V85.32H217.06V46.56H231.61C234.61 46.56 237.16 47.09 239.27 48.14C241.38 49.19 242.96 50.62 244.02 52.41C245.07 54.21 245.6 56.21 245.6 58.43C245.6 60.98 244.86 63.29 243.38 65.35C241.9 67.4 239.69 68.82 236.77 69.6L246.04 85.31H237.05V85.32ZM224.83 64.39H231.33C233.44 64.39 235.01 63.88 236.05 62.86C237.08 61.84 237.61 60.43 237.61 58.61C237.61 56.79 237.09 55.45 236.05 54.47C235.01 53.49 233.44 53 231.33 53H224.83V64.38V64.39Z" fill="black"/>
<path d="M291.85 46.56V85.32H284.07V60.11L273.69 85.32H267.8L257.36 60.11V85.32H249.59V46.56H258.42L270.75 75.38L283.08 46.56H291.85Z" fill="black"/>
<path d="M43.42 71.39H41.75C26.68 71.39 14.43 59.13 14.43 44.07V27.33C14.42 12.26 26.68 0 41.75 0H43.42C58.48 0 70.74 12.26 70.74 27.32V44.06C70.74 59.13 58.48 71.38 43.42 71.38V71.39ZM41.75 8.9C31.59 8.9 23.32 17.17 23.32 27.33V44.07C23.32 54.23 31.59 62.5 41.75 62.5H43.42C53.58 62.5 61.85 54.23 61.85 44.07V27.33C61.85 17.17 53.58 8.9 43.42 8.9H41.75Z" fill="url(#paint0_linear_1_2)"/>
<path d="M42.53 106.23C29.62 106.14 16.73 94.41 8.41001 83.95C2.93001 76.86 -1.31999 68.43 0.38001 59.45C2.94001 46.33 16.46 32.25 28.8 25.02C40.78 17.86 52.62 21.09 63.03 29.4C78.22 41.58 92.67 59.55 80.8 78.13C73.01 90.65 57.71 105.94 42.72 106.24H42.53V106.23Z" fill="url(#paint1_linear_1_2)"/>
<path d="M61.88 86.13C61.16 86.13 60.44 85.85 59.89 85.3C58.79 84.2 58.79 82.42 59.89 81.33C69.41 71.8 69.41 56.3 59.89 46.78C55.28 42.17 49.14 39.63 42.62 39.63C36.1 39.63 29.96 42.17 25.34 46.78C15.82 56.31 15.82 71.81 25.34 81.33C26.44 82.43 26.44 84.21 25.34 85.3C24.25 86.4 22.46 86.4 21.37 85.3C15.69 79.63 12.57 72.08 12.57 64.05C12.57 56.02 15.7 48.48 21.37 42.8C27.04 37.13 34.59 34 42.62 34C50.65 34 58.19 37.13 63.86 42.8C75.58 54.51 75.58 73.58 63.86 85.3C63.31 85.85 62.59 86.13 61.87 86.13H61.88Z" fill="white"/>
<path d="M32.75 73.72V53.47C32.75 50.42 36.1 48.55 38.69 50.15L55.1 60.27C57.57 61.79 57.57 65.38 55.1 66.9L38.69 77.02C36.09 78.62 32.75 76.75 32.75 73.7V73.72Z" fill="white"/>
</g>
<defs>
<linearGradient id="paint0_linear_1_2" x1="42.58" y1="71.39" x2="42.58" y2="0" gradientUnits="userSpaceOnUse">
<stop stop-color="#4D0097"/>
<stop offset="0.42" stop-color="#6C2ACA"/>
<stop offset="0.78" stop-color="#834AF0"/>
<stop offset="0.98" stop-color="#8C57FF"/>
</linearGradient>
<linearGradient id="paint1_linear_1_2" x1="42.58" y1="106.23" x2="42.58" y2="21.06" gradientUnits="userSpaceOnUse">
<stop stop-color="#AF8BFF"/>
<stop offset="0.2" stop-color="#A075FF"/>
<stop offset="0.42" stop-color="#9464FF"/>
<stop offset="0.67" stop-color="#8E5AFF"/>
<stop offset="0.98" stop-color="#8C57FF"/>
</linearGradient>
<clipPath id="clip0_1_2">
<rect width="291.85" height="106.23" fill="white"/>
</clipPath>
</defs>
</svg>
