<?xml version="1.0" encoding="UTF-8"?>
<svg id="Layer_1" data-name="Layer 1" xmlns="http://www.w3.org/2000/svg" xmlns:xlink="http://www.w3.org/1999/xlink" viewBox="0 0 291.85 106.23">
  <defs>
    <style>
      .cls-1 {
        fill: url(#linear-gradient);
      }

      .cls-1, .cls-2, .cls-3 {
        stroke-width: 0px;
      }

      .cls-2 {
        fill: url(#linear-gradient-2);
      }

      .cls-3 {
        fill: #fff;
      }
    </style>
    <linearGradient id="linear-gradient" x1="42.58" y1="71.39" x2="42.58" y2="0" gradientUnits="userSpaceOnUse">
      <stop offset="0" stop-color="#4d0097"/>
      <stop offset=".42" stop-color="#6c2aca"/>
      <stop offset=".78" stop-color="#834af0"/>
      <stop offset=".98" stop-color="#8c57ff"/>
    </linearGradient>
    <linearGradient id="linear-gradient-2" x1="42.58" y1="106.23" x2="42.58" y2="21.06" gradientUnits="userSpaceOnUse">
      <stop offset="0" stop-color="#af8bff"/>
      <stop offset=".2" stop-color="#a075ff"/>
      <stop offset=".42" stop-color="#9464ff"/>
      <stop offset=".67" stop-color="#8e5aff"/>
      <stop offset=".98" stop-color="#8c57ff"/>
    </linearGradient>
  </defs>
  <g>
    <path class="cls-3" d="M128.15,68.72c1.4,1.78,2.11,3.82,2.11,6.11,0,2.07-.51,3.89-1.53,5.47-1.02,1.57-2.49,2.81-4.42,3.7-1.92.89-4.2,1.33-6.83,1.33h-16.71v-38.76h15.99c2.63,0,4.9.42,6.8,1.28s3.35,2.04,4.33,3.56c.98,1.52,1.47,3.24,1.47,5.16,0,2.26-.61,4.15-1.81,5.67-1.2,1.52-2.81,2.59-4.8,3.22,2.18.41,3.98,1.5,5.39,3.28ZM108.54,62.55h7.11c1.85,0,3.28-.41,4.27-1.25,1-.83,1.5-2.03,1.5-3.58s-.5-2.76-1.5-3.61c-1-.85-2.42-1.28-4.27-1.28h-7.11v9.72ZM120.79,77.66c1.06-.89,1.59-2.15,1.59-3.78s-.56-2.97-1.67-3.92c-1.11-.94-2.61-1.41-4.5-1.41h-7.66v10.44h7.83c1.89,0,3.36-.45,4.41-1.33Z"/>
    <path class="cls-3" d="M175.68,46.56v38.76h-7.78v-25.21l-10.38,25.21h-5.89l-10.44-25.21v25.21h-7.77v-38.76h8.83l12.33,28.82,12.33-28.82h8.77Z"/>
    <path class="cls-3" d="M204.59,48.95c3.09,1.59,5.48,3.86,7.16,6.8,1.69,2.94,2.53,6.36,2.53,10.25s-.84,7.28-2.53,10.19c-1.69,2.91-4.07,5.16-7.16,6.75-3.09,1.59-6.67,2.39-10.74,2.39h-13.55v-38.76h13.55c4.07,0,7.65.8,10.74,2.39ZM203.01,75.38c2.22-2.22,3.33-5.35,3.33-9.38s-1.11-7.19-3.33-9.47-5.37-3.41-9.44-3.41h-5.5v25.6h5.5c4.08,0,7.22-1.11,9.44-3.33Z"/>
    <path class="cls-3" d="M237.05,85.32l-8.55-15.11h-3.67v15.11h-7.77v-38.76h14.55c3,0,5.55.53,7.66,1.58s3.69,2.48,4.75,4.27c1.05,1.8,1.58,3.8,1.58,6.02,0,2.55-.74,4.86-2.22,6.92-1.48,2.05-3.69,3.47-6.61,4.25l9.27,15.71h-8.99ZM224.83,64.39h6.5c2.11,0,3.68-.51,4.72-1.53,1.03-1.02,1.56-2.43,1.56-4.25s-.52-3.16-1.56-4.14c-1.04-.98-2.61-1.47-4.72-1.47h-6.5v11.38Z"/>
    <path class="cls-3" d="M291.85,46.56v38.76h-7.78v-25.21l-10.38,25.21h-5.89l-10.44-25.21v25.21h-7.77v-38.76h8.83l12.33,28.82,12.33-28.82h8.77Z"/>
  </g>
  <path class="cls-1" d="M43.42,71.39h-1.67c-15.07,0-27.32-12.26-27.32-27.32v-16.74C14.42,12.26,26.68,0,41.75,0h1.67c15.06,0,27.32,12.26,27.32,27.32v16.74c0,15.07-12.26,27.32-27.32,27.32ZM41.75,8.9c-10.16,0-18.43,8.27-18.43,18.43v16.74c0,10.16,8.27,18.43,18.43,18.43h1.67c10.16,0,18.43-8.27,18.43-18.43v-16.74c0-10.16-8.27-18.43-18.43-18.43h-1.67Z"/>
  <g>
    <path class="cls-2" d="M42.53,106.23c-12.91-.09-25.8-11.82-34.12-22.28C2.93,76.86-1.32,68.43.38,59.45c2.56-13.12,16.08-27.2,28.42-34.43,11.98-7.16,23.82-3.93,34.23,4.38,15.19,12.18,29.64,30.15,17.77,48.73-7.79,12.52-23.09,27.81-38.08,28.11h-.19Z"/>
    <path class="cls-3" d="M61.88,86.13c-.72,0-1.44-.28-1.99-.83-1.1-1.1-1.1-2.88,0-3.97,9.52-9.53,9.52-25.03,0-34.55-4.61-4.61-10.75-7.15-17.27-7.15s-12.66,2.54-17.28,7.15c-9.52,9.53-9.52,25.03,0,34.55,1.1,1.1,1.1,2.88,0,3.97-1.09,1.1-2.88,1.1-3.97,0-5.68-5.67-8.8-13.22-8.8-21.25s3.13-15.57,8.8-21.25c5.67-5.67,13.22-8.8,21.25-8.8s15.57,3.13,21.24,8.8c11.72,11.71,11.72,30.78,0,42.5-.55.55-1.27.83-1.99.83Z"/>
    <path class="cls-3" d="M32.75,73.72v-20.25c0-3.05,3.35-4.92,5.94-3.32l16.41,10.12c2.47,1.52,2.47,5.11,0,6.63l-16.41,10.12c-2.6,1.6-5.94-.27-5.94-3.32Z"/>
  </g>
</svg>
