<svg width="32" height="32" viewBox="0 0 32 32" fill="none" xmlns="http://www.w3.org/2000/svg">
<g clip-path="url(#clip0_528_131824)">
<g clip-path="url(#clip1_528_131824)">
<path d="M4 17.3333C4 16.9797 4.14048 16.6406 4.39052 16.3905C4.64057 16.1405 4.97971 16 5.33333 16H10.6667C11.0203 16 11.3594 16.1405 11.6095 16.3905C11.8595 16.6406 12 16.9797 12 17.3333V25.3333C12 25.687 11.8595 26.0261 11.6095 26.2761C11.3594 26.5262 11.0203 26.6667 10.6667 26.6667H5.33333C4.97971 26.6667 4.64057 26.5262 4.39052 26.2761C4.14048 26.0261 4 25.687 4 25.3333V17.3333Z" stroke="#566977" stroke-width="1.92" stroke-linecap="round" stroke-linejoin="round"/>
<path d="M12 11.999C12 11.6454 12.1405 11.3062 12.3905 11.0562C12.6406 10.8061 12.9797 10.6656 13.3333 10.6656H18.6667C19.0203 10.6656 19.3594 10.8061 19.6095 11.0562C19.8595 11.3062 20 11.6454 20 11.999V25.3323C20 25.6859 19.8595 26.0251 19.6095 26.2751C19.3594 26.5252 19.0203 26.6656 18.6667 26.6656H13.3333C12.9797 26.6656 12.6406 26.5252 12.3905 26.2751C12.1405 26.0251 12 25.6859 12 25.3323V11.999Z" stroke="#566977" stroke-width="1.92" stroke-linecap="round" stroke-linejoin="round"/>
<path d="M20 6.66768C20 6.31406 20.1405 5.97492 20.3905 5.72488C20.6406 5.47483 20.9797 5.33435 21.3333 5.33435H26.6667C27.0203 5.33435 27.3594 5.47483 27.6095 5.72488C27.8595 5.97492 28 6.31406 28 6.66768V25.3344C28 25.688 27.8595 26.0271 27.6095 26.2772C27.3594 26.5272 27.0203 26.6677 26.6667 26.6677H21.3333C20.9797 26.6677 20.6406 26.5272 20.3905 26.2772C20.1405 26.0271 20 25.688 20 25.3344V6.66768Z" stroke="#566977" stroke-width="1.92" stroke-linecap="round" stroke-linejoin="round"/>
<path d="M5.33124 26.6656H23.9979" stroke="#566977" stroke-width="1.92" stroke-linecap="round" stroke-linejoin="round"/>
</g>
</g>
<defs>
<clipPath id="clip0_528_131824">
<rect width="32" height="32" fill="white"/>
</clipPath>
<clipPath id="clip1_528_131824">
<rect width="32" height="32" fill="white"/>
</clipPath>
</defs>
</svg>
