<svg width="32" height="32" viewBox="0 0 32 32" fill="none" xmlns="http://www.w3.org/2000/svg">
<g clip-path="url(#clip0_528_221020)">
<g clip-path="url(#clip1_528_221020)">
<path d="M6.66457 5.33398H11.9979C12.3515 5.33398 12.6907 5.47446 12.9407 5.72451C13.1908 5.97456 13.3312 6.3137 13.3312 6.66732V14.6673C13.3312 15.0209 13.1908 15.3601 12.9407 15.6101C12.6907 15.8602 12.3515 16.0007 11.9979 16.0007H6.66457C6.31095 16.0007 5.97181 15.8602 5.72176 15.6101C5.47171 15.3601 5.33124 15.0209 5.33124 14.6673V6.66732C5.33124 6.3137 5.47171 5.97456 5.72176 5.72451C5.97181 5.47446 6.31095 5.33398 6.66457 5.33398Z" stroke="#566977" stroke-width="1.92" stroke-linecap="round" stroke-linejoin="round"/>
<path d="M6.66457 21.334H11.9979C12.3515 21.334 12.6907 21.4745 12.9407 21.7245C13.1908 21.9746 13.3312 22.3137 13.3312 22.6673V25.334C13.3312 25.6876 13.1908 26.0267 12.9407 26.2768C12.6907 26.5268 12.3515 26.6673 11.9979 26.6673H6.66457C6.31095 26.6673 5.97181 26.5268 5.72176 26.2768C5.47171 26.0267 5.33124 25.6876 5.33124 25.334V22.6673C5.33124 22.3137 5.47171 21.9746 5.72176 21.7245C5.97181 21.4745 6.31095 21.334 6.66457 21.334Z" stroke="#566977" stroke-width="1.92" stroke-linecap="round" stroke-linejoin="round"/>
<path d="M20.0021 16H25.3354C25.6891 16 26.0282 16.1405 26.2782 16.3905C26.5283 16.6406 26.6688 16.9797 26.6688 17.3333V25.3333C26.6688 25.687 26.5283 26.0261 26.2782 26.2761C26.0282 26.5262 25.6891 26.6667 25.3354 26.6667H20.0021C19.6485 26.6667 19.3093 26.5262 19.0593 26.2761C18.8092 26.0261 18.6688 25.687 18.6688 25.3333V17.3333C18.6688 16.9797 18.8092 16.6406 19.0593 16.3905C19.3093 16.1405 19.6485 16 20.0021 16Z" stroke="#566977" stroke-width="1.92" stroke-linecap="round" stroke-linejoin="round"/>
<path d="M20.0021 5.33398H25.3354C25.6891 5.33398 26.0282 5.47446 26.2782 5.72451C26.5283 5.97456 26.6688 6.3137 26.6688 6.66732V9.33398C26.6688 9.68761 26.5283 10.0267 26.2782 10.2768C26.0282 10.5268 25.6891 10.6673 25.3354 10.6673H20.0021C19.6485 10.6673 19.3093 10.5268 19.0593 10.2768C18.8092 10.0267 18.6688 9.68761 18.6688 9.33398V6.66732C18.6688 6.3137 18.8092 5.97456 19.0593 5.72451C19.3093 5.47446 19.6485 5.33398 20.0021 5.33398Z" stroke="#566977" stroke-width="1.92" stroke-linecap="round" stroke-linejoin="round"/>
</g>
</g>
<defs>
<clipPath id="clip0_528_221020">
<rect width="32" height="32" fill="white"/>
</clipPath>
<clipPath id="clip1_528_221020">
<rect width="32" height="32" fill="white"/>
</clipPath>
</defs>
</svg>
