<svg width="32" height="32" viewBox="0 0 32 32" fill="none" xmlns="http://www.w3.org/2000/svg">
<path d="M14.8877 9.33333C14.8877 10.2174 15.473 11.0652 16.5149 11.6904C17.5567 12.3155 18.9698 12.6667 20.4433 12.6667C21.9167 12.6667 23.3298 12.3155 24.3716 11.6904C25.4135 11.0652 25.9988 10.2174 25.9988 9.33333C25.9988 8.44928 25.4135 7.60143 24.3716 6.97631C23.3298 6.35119 21.9167 6 20.4433 6C18.9698 6 17.5567 6.35119 16.5149 6.97631C15.473 7.60143 14.8877 8.44928 14.8877 9.33333Z" stroke="#566977" stroke-width="1.92" stroke-linecap="round" stroke-linejoin="round"/>
<path d="M14.8877 9.33398V13.7784C14.8877 15.6195 17.3755 17.1118 20.4433 17.1118C23.511 17.1118 25.9988 15.6195 25.9988 13.7784V9.33398" stroke="#566977" stroke-width="1.92" stroke-linecap="round" stroke-linejoin="round"/>
<path d="M14.8877 13.7773V18.2218C14.8877 20.0629 17.3755 21.5551 20.4433 21.5551C23.511 21.5551 25.9988 20.0629 25.9988 18.2218V13.7773" stroke="#566977" stroke-width="1.92" stroke-linecap="round" stroke-linejoin="round"/>
<path d="M14.8877 18.2227V22.6671C14.8877 24.5082 17.3755 26.0004 20.4433 26.0004C23.511 26.0004 25.9988 24.5082 25.9988 22.6671V18.2227" stroke="#566977" stroke-width="1.92" stroke-linecap="round" stroke-linejoin="round"/>
<path d="M10.4444 12.666H7.66667C7.22464 12.666 6.80072 12.8416 6.48816 13.1542C6.17559 13.4667 6 13.8907 6 14.3327C6 14.7747 6.17559 15.1986 6.48816 15.5112C6.80072 15.8238 7.22464 15.9993 7.66667 15.9993H8.77778C9.21981 15.9993 9.64373 16.1749 9.95629 16.4875C10.2688 16.8001 10.4444 17.224 10.4444 17.666C10.4444 18.108 10.2688 18.532 9.95629 18.8445C9.64373 19.1571 9.21981 19.3327 8.77778 19.3327H6" stroke="#566977" stroke-width="1.92" stroke-linecap="round" stroke-linejoin="round"/>
<path d="M8.22461 19.3344V20.4455M8.22461 11.5566V12.6678" stroke="#566977" stroke-width="1.92" stroke-linecap="round" stroke-linejoin="round"/>
</svg>
