<svg width="32" height="32" viewBox="0 0 32 32" fill="none" xmlns="http://www.w3.org/2000/svg">
<g clip-path="url(#clip0_528_162855)">
<g clip-path="url(#clip1_528_162855)">
<path d="M13.3312 17.3327C13.3312 18.0399 13.6122 18.7182 14.1123 19.2183C14.6124 19.7184 15.2907 19.9993 15.9979 19.9993C16.7051 19.9993 17.3834 19.7184 17.8835 19.2183C18.3836 18.7182 18.6646 18.0399 18.6646 17.3327C18.6646 16.6254 18.3836 15.9472 17.8835 15.4471C17.3834 14.947 16.7051 14.666 15.9979 14.666C15.2907 14.666 14.6124 14.947 14.1123 15.4471C13.6122 15.9472 13.3312 16.6254 13.3312 17.3327Z" stroke="#566977" stroke-width="1.92" stroke-linecap="round" stroke-linejoin="round"/>
<path d="M17.9313 15.3993L20.6646 12.666" stroke="#566977" stroke-width="1.92" stroke-linecap="round" stroke-linejoin="round"/>
<path d="M8.53333 26.6656C6.5842 25.1163 5.16522 22.9992 4.47304 20.6075C3.78086 18.2158 3.84976 15.6681 4.67019 13.3173C5.49063 10.9665 7.02196 8.92918 9.05198 7.48757C11.082 6.04596 13.5102 5.27148 16 5.27148C18.4898 5.27148 20.918 6.04596 22.948 7.48757C24.978 8.92918 26.5094 10.9665 27.3298 13.3173C28.1502 15.6681 28.2191 18.2158 27.527 20.6075C26.8348 22.9992 25.4158 25.1163 23.4667 26.6656H8.53333Z" stroke="#566977" stroke-width="1.92" stroke-linecap="round" stroke-linejoin="round"/>
</g>
</g>
<defs>
<clipPath id="clip0_528_162855">
<rect width="32" height="32" fill="white"/>
</clipPath>
<clipPath id="clip1_528_162855">
<rect width="32" height="32" fill="white"/>
</clipPath>
</defs>
</svg>
