<svg width="32" height="32" viewBox="0 0 32 32" fill="none" xmlns="http://www.w3.org/2000/svg">
<g clip-path="url(#clip0_527_41200)">
<g clip-path="url(#clip1_527_41200)">
<path d="M20 13.3374L26.0707 10.3027C26.2739 10.2012 26.4997 10.1532 26.7267 10.1635C26.9536 10.1737 27.1742 10.2417 27.3675 10.3611C27.5608 10.4806 27.7203 10.6474 27.831 10.8458C27.9417 11.0442 27.9999 11.2675 28 11.4947V20.5134C27.9999 20.7406 27.9417 20.964 27.831 21.1624C27.7203 21.3608 27.5608 21.5276 27.3675 21.647C27.1742 21.7664 26.9536 21.8344 26.7267 21.8447C26.4997 21.8549 26.2739 21.807 26.0707 21.7054L20 18.6707V13.3374Z" stroke="#566977" stroke-width="1.92" stroke-linecap="round" stroke-linejoin="round"/>
<path d="M4 10.6667C4 9.95942 4.28095 9.28115 4.78105 8.78105C5.28115 8.28095 5.95942 8 6.66667 8H17.3333C18.0406 8 18.7189 8.28095 19.219 8.78105C19.719 9.28115 20 9.95942 20 10.6667V21.3333C20 22.0406 19.719 22.7189 19.219 23.219C18.7189 23.719 18.0406 24 17.3333 24H6.66667C5.95942 24 5.28115 23.719 4.78105 23.219C4.28095 22.7189 4 22.0406 4 21.3333V10.6667Z" stroke="#566977" stroke-width="1.92" stroke-linecap="round" stroke-linejoin="round"/>
</g>
</g>
<defs>
<clipPath id="clip0_527_41200">
<rect width="32" height="32" fill="white"/>
</clipPath>
<clipPath id="clip1_527_41200">
<rect width="32" height="32" fill="white"/>
</clipPath>
</defs>
</svg>
