<svg width="213" height="58" viewBox="0 0 213 58" fill="none" xmlns="http://www.w3.org/2000/svg">
<g clip-path="url(#clip0_5_113)">
<path d="M100.796 33.3705H106.041C106.099 34.393 106.484 35.1652 107.199 35.685C107.969 36.2048 108.991 36.4551 110.283 36.4551C111.209 36.4551 111.999 36.2818 112.675 35.916C113.291 35.5502 113.601 35.0668 113.601 34.4507C113.601 33.5245 112.521 32.8315 110.362 32.3673C109.436 32.2133 108.743 32.0592 108.281 31.9052C105.562 31.2314 103.731 30.4399 102.805 29.5137C101.782 28.5875 101.263 27.3532 101.263 25.8109C101.263 23.8644 102.016 22.2451 103.498 20.9531C105.04 19.7766 107.045 19.1797 109.513 19.1797C112.193 19.1797 114.313 19.7787 115.913 20.9531C117.398 22.2451 118.208 23.9029 118.305 25.965H114.989C114.005 25.965 113.274 25.5222 112.754 24.6537L112.138 24.0376C111.522 23.5756 110.672 23.3424 109.592 23.3424C108.57 23.3424 107.8 23.4964 107.28 23.8045C106.818 24.1125 106.585 24.5745 106.585 25.1927C106.585 26.0227 107.915 26.7158 110.595 27.2762C111.212 27.488 111.656 27.5843 112.061 27.5843C114.683 28.2581 116.514 29.0303 117.537 29.8966C118.521 30.8228 119.002 32.0571 119.002 33.5994C119.002 35.8561 118.172 37.6102 116.534 38.8445C114.991 39.9825 112.677 40.5408 109.592 40.5408C106.508 40.5408 104.484 39.9418 103.038 38.7653C101.553 37.5888 100.803 35.854 100.803 33.5973V33.3662L100.796 33.3705Z" fill="#A3ABB5"/>
<path d="M129.991 40.4851C128.294 40.5814 126.463 40.5621 124.476 40.4081C122.491 40.2541 121.507 39.0006 121.507 36.6283V13.9561H124.283C124.957 13.9561 125.537 14.2063 126.057 14.7283C126.577 15.2481 126.827 15.8641 126.827 16.5786V18.7947H131.3V21.1284C131.3 21.8985 131.049 22.536 130.53 23.0173C130.01 23.4986 129.392 23.7488 128.679 23.7488H126.829V35.163C126.829 36.0315 127.349 36.4743 128.371 36.4743H129.991V40.4851Z" fill="#A3ABB5"/>
<path d="M140.365 40.5429C137.435 40.5429 135.139 39.5974 133.501 37.6893C131.862 35.839 131.032 33.1972 131.032 29.7469C131.032 26.2965 131.824 23.8858 133.424 22.0354C135.062 20.1274 137.358 19.1819 140.288 19.1819C143.373 19.1819 145.764 20.1081 147.461 21.9584C149.099 23.8665 149.929 26.5083 149.929 29.9009V30.7501C149.929 31.0004 149.91 31.1929 149.852 31.2892H136.511C136.568 32.8892 136.953 34.0657 137.668 34.8358C138.342 35.6658 139.345 36.07 140.675 36.07C141.544 36.07 142.295 35.8968 142.911 35.531C143.219 35.4347 143.452 35.1459 143.76 34.8358C143.818 34.6818 144.01 34.47 144.338 34.2197C144.665 33.9694 145.148 33.8347 145.764 33.8347H149.621C149.063 35.9952 147.983 37.6337 146.382 38.7696C144.782 39.9461 142.776 40.545 140.367 40.545M144.374 27.8196C144.278 26.4313 143.912 25.4088 143.294 24.735C142.62 24.0205 141.674 23.6547 140.44 23.6547C139.302 23.6547 138.378 24.0205 137.664 24.735C136.951 25.4473 136.564 26.489 136.506 27.8196H144.372H144.374Z" fill="#A3ABB5"/>
<path d="M165.525 13.9732H168.148C168.862 13.9732 169.478 14.2427 169.998 14.7839C170.518 15.323 170.768 15.9219 170.768 16.5957V31.2122C170.768 34.8551 169.707 37.3236 167.607 38.6156C165.504 39.9076 163.211 40.5429 160.742 40.5429C159.412 40.5429 158.1 40.329 156.808 39.8862C155.516 39.4434 154.496 38.7503 153.724 37.7664C152.239 35.8583 151.488 33.2743 151.488 29.9779C151.488 26.6816 152.241 24.136 153.724 22.1895C155.266 20.1851 157.251 19.1819 159.662 19.1819C160.954 19.1819 162.073 19.4322 163.055 19.952C164.077 20.5702 164.905 21.3595 165.523 22.3435V13.9732H165.525ZM157.891 34.4508C158.661 35.531 159.76 36.0701 161.206 36.0701C162.652 36.0701 163.675 35.531 164.445 34.4508C165.159 33.3705 165.525 31.809 165.525 29.7469C165.525 27.8966 165.14 26.4313 164.368 25.3511C163.538 24.3286 162.441 23.8088 161.052 23.8088C159.664 23.8088 158.661 24.3478 157.891 25.4281C157.121 26.4505 156.734 27.8966 156.734 29.7469C156.734 31.809 157.119 33.3705 157.891 34.4508Z" fill="#A3ABB5"/>
<path d="M182.995 24.1938C181.549 24.1938 180.45 24.7136 179.68 25.7361C178.91 26.7586 178.522 28.1854 178.522 29.9779V40.5429H173.277V14.0139H175.9C176.614 14.0139 177.23 14.2641 177.75 14.7861C178.27 15.3059 178.522 15.9219 178.522 16.6364V22.7285C179.449 21.1862 180.758 20.2023 182.454 19.798C184.15 19.3937 185.77 19.4899 187.312 20.106C188.758 20.7242 189.954 21.706 190.936 23.0366C191.92 24.3671 192.401 26.2174 192.401 28.5896V40.5429H187.233V29.9009C187.233 28.3586 187.079 27.1436 186.153 25.8131C185.382 24.7329 184.321 24.1938 182.991 24.1938H182.995Z" fill="#A3ABB5"/>
<path d="M187.282 46.2736H195.793C196.816 46.2736 197.624 46.0233 198.223 45.542C198.822 45.0607 200.41 43.8714 199.577 40.1707L192.405 19.7338H196.615C197.639 19.7338 198.538 20.4119 198.822 21.3959L202.51 34.2326L206.134 21.5841C206.442 20.3499 207.272 19.7338 208.602 19.7338H212.305L203.432 46.1217C202.816 47.818 202.044 49.033 201.12 49.7453C200.194 50.3635 198.671 50.6716 196.57 50.6716H187.286V46.2757L187.282 46.2736Z" fill="#A3ABB5"/>
<path d="M85.4974 19.0064C90.0472 19.0064 93.75 22.7092 93.75 27.2591C93.75 31.8089 90.0472 35.5117 85.4974 35.5117C80.9475 35.5117 77.2448 31.8089 77.2448 27.2591C77.2448 22.7092 80.9475 19.0064 85.4974 19.0064ZM85.4974 13.9731C78.1603 13.9731 72.2115 19.922 72.2115 27.2591C72.2115 34.5962 78.1603 40.545 85.4974 40.545C92.8345 40.545 98.7833 34.5962 98.7833 27.2591C98.7833 19.922 92.8345 13.9731 85.4974 13.9731Z" fill="#A3ABB5"/>
<path d="M81.0502 45.1761L79.3775 50.5196H78.6929L77.2148 46.0361L75.7367 50.5196H75.0415L73.3687 45.1761H74.0639L75.3945 49.8244L76.8918 45.1761H77.5763L79.0545 49.8351L80.3764 45.1761H81.0524H81.0502Z" fill="#A3ABB5"/>
<path d="M90.6034 45.1761L88.9307 50.5196H88.2462L86.768 46.0361L85.2899 50.5196H84.5947L82.922 45.1761H83.6172L84.9477 49.8244L86.445 45.1761H87.1295L88.6077 49.8351L89.9296 45.1761H90.6056H90.6034Z" fill="#A3ABB5"/>
<path d="M100.157 45.1761L98.4839 50.5196H97.7993L96.3212 46.0361L94.8431 50.5196H94.1479L92.4751 45.1761H93.1703L94.5009 49.8244L95.9982 45.1761H96.6827L98.1608 49.8351L99.4828 45.1761H100.159H100.157Z" fill="#A3ABB5"/>
<path d="M102.422 50.4235C102.328 50.3251 102.281 50.2053 102.281 50.0619C102.281 49.9186 102.328 49.7988 102.422 49.7047C102.516 49.6106 102.636 49.5635 102.779 49.5635C102.922 49.5635 103.032 49.6106 103.126 49.7047C103.22 49.7988 103.267 49.9186 103.267 50.0619C103.267 50.2053 103.22 50.3272 103.126 50.4235C103.032 50.5219 102.916 50.571 102.779 50.571C102.642 50.571 102.516 50.5219 102.422 50.4235Z" fill="#A3ABB5"/>
<path d="M107.004 50.2608C106.602 50.0361 106.285 49.7153 106.054 49.3024C105.823 48.8896 105.708 48.404 105.708 47.85C105.708 47.296 105.825 46.8104 106.061 46.3975C106.296 45.9826 106.615 45.6638 107.019 45.4392C107.423 45.2146 107.877 45.1013 108.379 45.1013C108.882 45.1013 109.338 45.2146 109.744 45.4392C110.153 45.6638 110.471 45.9847 110.702 46.3975C110.933 46.8125 111.049 47.296 111.049 47.85C111.049 48.404 110.931 48.881 110.696 49.2982C110.461 49.7153 110.138 50.0383 109.727 50.2629C109.316 50.4875 108.858 50.6009 108.356 50.6009C107.853 50.6009 107.402 50.4875 107 50.2629L107.004 50.2608ZM109.338 49.7623C109.637 49.6019 109.881 49.3602 110.067 49.0372C110.253 48.7142 110.345 48.3185 110.345 47.8479C110.345 47.3773 110.253 46.9815 110.071 46.6585C109.889 46.3355 109.648 46.0938 109.346 45.9334C109.047 45.7729 108.719 45.6938 108.366 45.6938C108.014 45.6938 107.688 45.7729 107.387 45.9334C107.087 46.0938 106.848 46.3355 106.668 46.6585C106.488 46.9815 106.398 47.3773 106.398 47.8479C106.398 48.3185 106.488 48.7142 106.668 49.0372C106.848 49.3602 107.085 49.6019 107.382 49.7623C107.68 49.9228 108.005 50.0019 108.356 50.0019C108.707 50.0019 109.034 49.9228 109.335 49.7623H109.338Z" fill="#A3ABB5"/>
<path d="M114.217 50.1731C113.828 49.8886 113.612 49.5036 113.567 49.0137H114.27C114.302 49.3132 114.446 49.5571 114.696 49.7432C114.946 49.9293 115.284 50.0212 115.71 50.0212C116.082 50.0212 116.373 49.9335 116.587 49.756C116.799 49.5806 116.906 49.3624 116.906 49.0993C116.906 48.9175 116.848 48.7656 116.73 48.6501C116.613 48.5324 116.465 48.4405 116.285 48.372C116.106 48.3035 115.864 48.2308 115.556 48.1517C115.158 48.0469 114.835 47.942 114.587 47.8394C114.339 47.7346 114.129 47.5805 113.956 47.3752C113.783 47.1698 113.697 46.8939 113.697 46.5474C113.697 46.2864 113.776 46.0447 113.932 45.8222C114.089 45.5997 114.311 45.4243 114.598 45.2938C114.884 45.1634 115.212 45.097 115.577 45.097C116.151 45.097 116.615 45.2425 116.968 45.5334C117.321 45.8243 117.509 46.2244 117.535 46.7335H116.85C116.831 46.4211 116.709 46.1666 116.482 45.9741C116.258 45.7816 115.95 45.6853 115.558 45.6853C115.212 45.6853 114.931 45.7666 114.715 45.9292C114.499 46.0917 114.392 46.2949 114.392 46.5367C114.392 46.7463 114.456 46.9174 114.583 47.05C114.709 47.1827 114.867 47.2875 115.058 47.3623C115.246 47.4372 115.5 47.5206 115.821 47.6126C116.206 47.7174 116.512 47.818 116.741 47.9164C116.97 48.0148 117.165 48.1581 117.329 48.3463C117.492 48.5367 117.577 48.787 117.584 49.0993C117.584 49.3859 117.505 49.6426 117.349 49.8672C117.192 50.0918 116.974 50.2694 116.692 50.3999C116.412 50.5303 116.089 50.5967 115.723 50.5967C115.109 50.5967 114.608 50.4555 114.221 50.171L114.217 50.1731Z" fill="#A3ABB5"/>
<path d="M121.338 45.7537V49.0715C121.338 49.3987 121.4 49.6234 121.524 49.7474C121.648 49.8715 121.866 49.9335 122.181 49.9335H122.808V50.5218H122.074C121.59 50.5218 121.233 50.4084 120.998 50.1838C120.763 49.9592 120.645 49.5891 120.645 49.0736V45.7559H119.9V45.1783H120.645V43.8371H121.34V45.1783H122.808V45.7559H121.34L121.338 45.7537Z" fill="#A3ABB5"/>
<path d="M130.322 48.1132H125.888C125.907 48.5175 126.005 48.864 126.181 49.1506C126.356 49.4373 126.589 49.6555 126.876 49.8009C127.163 49.9485 127.477 50.0212 127.815 50.0212C128.258 50.0212 128.632 49.9143 128.936 49.6982C129.24 49.4822 129.441 49.1934 129.537 48.8276H130.262C130.132 49.3496 129.852 49.7752 129.426 50.1047C128.998 50.4341 128.461 50.5988 127.815 50.5988C127.312 50.5988 126.863 50.4854 126.465 50.2608C126.068 50.0362 125.755 49.7153 125.531 49.3025C125.306 48.8875 125.193 48.4041 125.193 47.8501C125.193 47.296 125.304 46.8083 125.526 46.3912C125.749 45.9741 126.059 45.6532 126.457 45.4329C126.855 45.2104 127.308 45.0992 127.817 45.0992C128.326 45.0992 128.771 45.2104 129.154 45.4329C129.535 45.6553 129.83 45.9527 130.036 46.3292C130.241 46.7056 130.344 47.1206 130.344 47.5763C130.344 47.8116 130.337 47.9912 130.324 48.1153L130.322 48.1132ZM129.407 46.5367C129.24 46.2564 129.013 46.0447 128.726 45.9013C128.44 45.758 128.125 45.6853 127.787 45.6853C127.278 45.6853 126.844 45.8479 126.485 46.1751C126.125 46.5024 125.926 46.9623 125.888 47.5549H129.646C129.653 47.157 129.573 46.8169 129.407 46.5367Z" fill="#A3ABB5"/>
<path d="M133.191 46.3955C133.413 45.9805 133.717 45.6618 134.106 45.4372C134.493 45.2126 134.934 45.0992 135.422 45.0992C135.909 45.0992 136.316 45.2126 136.695 45.4414C137.073 45.6703 137.351 45.9677 137.527 46.3313V43.2767H138.211V50.5196H137.527V49.326C137.364 49.6982 137.097 50.0041 136.724 50.2416C136.352 50.479 135.916 50.5988 135.413 50.5988C134.911 50.5988 134.485 50.4854 134.098 50.2565C133.708 50.0277 133.407 49.7047 133.189 49.2875C132.97 48.8704 132.861 48.387 132.861 47.8394C132.861 47.2918 132.972 46.8105 133.195 46.3955H133.191ZM137.261 46.7142C137.086 46.3891 136.846 46.1366 136.543 45.9612C136.239 45.7858 135.905 45.696 135.539 45.696C135.174 45.696 134.821 45.7816 134.521 45.9505C134.222 46.1195 133.984 46.3655 133.811 46.6885C133.638 47.0115 133.552 47.3944 133.552 47.8394C133.552 48.2843 133.638 48.6608 133.811 48.9902C133.984 49.3196 134.22 49.572 134.521 49.7432C134.821 49.9164 135.161 50.002 135.539 50.002C135.918 50.002 136.239 49.9143 136.543 49.7367C136.846 49.5613 137.086 49.3089 137.261 48.9838C137.437 48.6565 137.527 48.28 137.527 47.8479C137.527 47.4158 137.439 47.0393 137.261 46.7121V46.7142Z" fill="#A3ABB5"/>
<path d="M144.99 45.3344C145.313 45.5034 145.567 45.7644 145.754 46.113C145.94 46.4617 146.032 46.8874 146.032 47.3901V50.5217H145.356V47.4671C145.356 46.8874 145.21 46.4425 144.919 46.1366C144.628 45.8307 144.233 45.6767 143.73 45.6767C143.227 45.6767 142.804 45.8392 142.496 46.1665C142.19 46.4938 142.036 46.973 142.036 47.6061V50.5239H141.351V43.2809H142.036V46.0895C142.205 45.7708 142.455 45.5227 142.785 45.3451C143.114 45.1697 143.484 45.0799 143.895 45.0799C144.305 45.0799 144.663 45.1654 144.986 45.3344H144.99Z" fill="#A3ABB5"/>
<path d="M153.529 45.1762L150.357 53.0352H149.642L150.68 50.4897L148.487 45.174H149.24L151.061 49.7346L152.823 45.174H153.527L153.529 45.1762Z" fill="#A3ABB5"/>
<path d="M155.794 50.4235C155.7 50.3251 155.653 50.2053 155.653 50.0619C155.653 49.9186 155.7 49.7988 155.794 49.7047C155.889 49.6106 156.008 49.5635 156.152 49.5635C156.295 49.5635 156.404 49.6106 156.498 49.7047C156.592 49.7988 156.639 49.9186 156.639 50.0619C156.639 50.2053 156.592 50.3272 156.498 50.4235C156.404 50.5219 156.289 50.571 156.152 50.571C156.015 50.571 155.889 50.5219 155.794 50.4235Z" fill="#A3ABB5"/>
<path d="M159.412 46.3955C159.634 45.9805 159.94 45.6618 160.332 45.4372C160.723 45.2126 161.17 45.0992 161.673 45.0992C162.332 45.0992 162.875 45.2618 163.303 45.589C163.731 45.9163 164.007 46.3591 164.131 46.9196H163.397C163.305 46.5345 163.108 46.2329 162.804 46.0147C162.501 45.7965 162.124 45.6874 161.675 45.6874C161.316 45.6874 160.993 45.7687 160.706 45.9313C160.419 46.0939 160.193 46.3377 160.026 46.6607C159.859 46.9837 159.775 47.3795 159.775 47.8501C159.775 48.3207 159.859 48.7185 160.026 49.0437C160.193 49.371 160.419 49.6148 160.706 49.7774C160.993 49.94 161.316 50.0212 161.675 50.0212C162.124 50.0212 162.503 49.9121 162.804 49.694C163.108 49.4758 163.305 49.1699 163.397 48.7784H164.131C164.007 49.326 163.728 49.7667 163.298 50.1004C162.869 50.4341 162.325 50.5988 161.673 50.5988C161.17 50.5988 160.723 50.4854 160.332 50.2608C159.94 50.0362 159.634 49.7153 159.412 49.3025C159.189 48.8897 159.078 48.4041 159.078 47.8501C159.078 47.296 159.189 46.8105 159.412 46.3976V46.3955Z" fill="#A3ABB5"/>
<path d="M167.951 50.2608C167.549 50.0361 167.232 49.7153 167.001 49.3024C166.77 48.8896 166.655 48.404 166.655 47.85C166.655 47.296 166.772 46.8104 167.008 46.3975C167.243 45.9826 167.562 45.6638 167.966 45.4392C168.37 45.2146 168.824 45.1013 169.326 45.1013C169.829 45.1013 170.285 45.2146 170.691 45.4392C171.1 45.6638 171.418 45.9847 171.649 46.3975C171.88 46.8125 171.996 47.296 171.996 47.85C171.996 48.404 171.878 48.881 171.643 49.2982C171.408 49.7153 171.085 50.0383 170.674 50.2629C170.263 50.4875 169.806 50.6009 169.303 50.6009C168.8 50.6009 168.349 50.4875 167.947 50.2629L167.951 50.2608ZM170.287 49.7623C170.586 49.6019 170.83 49.3602 171.016 49.0372C171.202 48.7142 171.294 48.3185 171.294 47.8479C171.294 47.3773 171.202 46.9815 171.021 46.6585C170.839 46.3355 170.597 46.0938 170.295 45.9334C169.996 45.7729 169.669 45.6938 169.316 45.6938C168.963 45.6938 168.638 45.7729 168.336 45.9334C168.037 46.0938 167.797 46.3355 167.617 46.6585C167.438 46.9815 167.348 47.3773 167.348 47.8479C167.348 48.3185 167.438 48.7142 167.617 49.0372C167.797 49.3602 168.034 49.6019 168.332 49.7623C168.629 49.9228 168.954 50.0019 169.305 50.0019C169.656 50.0019 169.983 49.9228 170.285 49.7623H170.287Z" fill="#A3ABB5"/>
<path d="M182.721 45.6704C183.117 46.0661 183.314 46.6372 183.314 47.388V50.5197H182.638V47.4651C182.638 46.8854 182.497 46.4404 182.217 46.1345C181.936 45.8286 181.553 45.6746 181.072 45.6746C180.591 45.6746 180.167 45.8415 179.868 46.173C179.568 46.5067 179.417 46.988 179.417 47.6212V50.5175H178.741V47.4629C178.741 46.8832 178.599 46.4383 178.319 46.1324C178.039 45.8265 177.654 45.6725 177.164 45.6725C176.674 45.6725 176.259 45.8393 175.96 46.1709C175.66 46.5046 175.508 46.9859 175.508 47.6191V50.5154H174.824V45.1719H175.508V46.0918C175.677 45.7581 175.919 45.5056 176.234 45.3324C176.546 45.1591 176.897 45.0735 177.282 45.0735C177.746 45.0735 178.15 45.1848 178.501 45.4072C178.85 45.6297 179.102 45.9549 179.26 46.387C179.404 45.9634 179.65 45.6383 179.998 45.4137C180.347 45.1891 180.745 45.0757 181.188 45.0757C181.814 45.0757 182.326 45.2725 182.719 45.6682L182.721 45.6704Z" fill="#A3ABB5"/>
<path d="M30.1162 29.4945L15.303 20.9424C12.9072 19.5584 9.91248 21.2889 9.91248 24.0548V41.159C9.91248 43.9248 12.9072 45.6532 15.303 44.2713L30.1162 35.7192C32.512 34.3352 32.512 30.8785 30.1162 29.4945Z" fill="#A3ABB5"/>
<path d="M29.3248 28.0229L14.5116 19.4708C12.1158 18.0868 9.12103 19.8173 9.12103 22.5831V39.6873C9.12103 42.4532 12.1158 44.1816 14.5116 42.7997L29.3248 34.2476C31.7206 32.8636 31.7206 29.4069 29.3248 28.0229Z" fill="#CCD3DD"/>
<path opacity="0.46" d="M14.0926 43.0414L17.1322 41.2873C14.499 38.1065 12.9118 34.0294 12.9118 29.5758C12.9118 26.0976 13.8808 22.8483 15.56 20.0739L14.0947 19.2268C11.885 17.9519 9.12558 19.5456 9.12558 22.0954V40.1707C9.12558 42.7205 11.8872 44.3142 14.0947 43.0393L14.0926 43.0414Z" fill="#A3ABB5"/>
<path opacity="0.61" d="M29.3248 28.0228L19.0336 22.0804C18.9973 23.4794 19.2005 24.8997 19.408 26.1361C20.7128 30.4849 24.867 34.0187 29.5858 34.0722C31.7121 32.594 31.6308 29.3533 29.327 28.0228H29.3248Z" fill="#A3ABB5"/>
<path d="M54.6838 22.63C53.3319 23.5071 52.0676 24.444 50.9232 25.4109C49.7874 26.3713 48.7499 27.3767 47.8387 28.3949C47.4536 28.8249 47.0964 29.2548 46.7584 29.6826C46.5766 39.546 38.5293 47.4863 28.621 47.4863C18.7127 47.4863 10.4751 39.362 10.4751 29.3404C10.4751 19.3187 18.5994 11.1944 28.621 11.1944C30.0499 11.1944 31.4361 11.3656 32.7687 11.6757C33.126 10.2661 33.6415 8.7195 34.3196 7.04887C35.1046 5.07234 35.9324 3.39957 36.8245 1.97707C34.2276 1.19844 31.4746 0.774902 28.621 0.774902C12.8452 0.774902 0.055542 13.5646 0.055542 29.3404C0.055542 45.1162 12.8452 57.9059 28.621 57.9059C44.3968 57.9059 57.1865 45.1162 57.1865 29.3404C57.1865 26.7029 56.8207 24.1509 56.1512 21.7252C55.6528 22.0183 55.1608 22.3177 54.6838 22.6279V22.63Z" fill="#A3ABB5"/>
<path opacity="0.33" d="M56.1533 21.7253C55.6549 22.0184 55.1629 22.3179 54.6859 22.628C54.2688 22.8976 53.8645 23.1756 53.4666 23.4559C53.2869 24.3222 53.0751 25.1885 52.8249 26.0527C48.0782 42.466 32.3131 52.3251 17.6089 48.0726C9.26005 45.6618 3.05026 39.2189 0.111145 31.0946C1.01812 46.0533 13.4356 57.906 28.621 57.906C43.8064 57.906 57.1865 45.1163 57.1865 29.3405C57.1865 26.703 56.8207 24.1511 56.1511 21.7253H56.1533Z" fill="#A3ABB5"/>
<path d="M56.1533 21.7253C55.6549 22.0183 55.1629 22.3178 54.6859 22.628C53.334 23.505 52.0698 24.4419 50.9254 25.4088C50.2537 25.9778 49.6227 26.5618 49.0259 27.1522C48.8312 28.134 48.5959 29.118 48.3114 30.102C43.5647 46.5153 27.7996 56.3743 13.0955 52.1218C12.0302 51.8138 11.0013 51.4373 10.0066 51.0031C15.0057 55.3027 21.5107 57.9038 28.6232 57.9038C44.399 57.9038 57.1886 45.1141 57.1886 29.3383C57.1886 26.7008 56.8229 24.1489 56.1533 21.7231V21.7253Z" fill="#A3ABB5"/>
<path d="M35.7912 3.7997C36.127 3.15156 36.4714 2.54405 36.8265 1.97719C34.9313 1.41033 32.9569 1.03385 30.9205 0.869141C32.666 1.66488 34.2938 2.65101 35.7912 3.79756V3.7997Z" fill="#A3ABB5"/>
<path d="M56.1533 21.7253C55.6549 22.0184 55.1629 22.3179 54.6858 22.628C53.3339 23.5051 52.0697 24.442 50.9253 25.4089C49.7895 26.3693 48.752 27.3747 47.8407 28.3929C47.4707 28.8057 47.1263 29.2207 46.799 29.6336C46.7691 30.1149 46.7284 30.5983 46.6749 31.0817C46.645 31.4005 46.6065 31.7192 46.5594 32.0336C46.3348 33.6872 45.9883 35.3514 45.5091 37.0113C42.6492 46.8982 35.7912 54.4064 27.575 57.8846C27.9236 57.8974 28.2723 57.906 28.6252 57.906C44.4011 57.906 57.1907 45.1163 57.1907 29.3405C57.1907 26.703 56.8249 24.1511 56.1554 21.7253H56.1533Z" fill="#A3ABB5"/>
<path opacity="0.6" d="M10.4751 29.3405C10.4751 23.443 13.2901 18.2044 17.6474 14.8909C20.6229 11.4598 24.668 8.90359 29.4296 7.79767C31.0446 7.42333 32.6575 7.24151 34.2511 7.2244C34.2746 7.1645 34.2982 7.10675 34.3217 7.04899C34.3966 6.85861 34.4736 6.67251 34.5506 6.48855C34.6147 4.96765 34.7816 3.30557 35.0575 1.51301C32.989 1.03385 30.835 0.775024 28.621 0.775024C19.286 0.775024 10.997 5.25215 5.78616 12.1785C5.02464 17.6782 5.66423 23.7339 7.93595 29.6549C9.38839 33.4433 11.3778 36.8231 13.7308 39.7066C11.6815 36.7674 10.4751 33.1951 10.4751 29.3405Z" fill="#A3ABB5"/>
<path d="M49.8579 13.3829C52.0804 12.4181 55.0024 17.2354 55.0024 17.2354C53.6035 18.0375 51.2269 19.8836 49.9606 20.8269C48.6943 21.7703 47.5284 22.7564 46.4632 23.781C45.3979 24.8078 44.4396 25.8602 43.5904 26.9426C42.739 28.025 42.0181 29.0988 41.4256 30.1641L39.8448 29.6806C39.8341 29.1801 39.847 28.6496 39.8855 28.0934C39.924 27.5373 39.9817 26.979 40.0609 26.4228C40.14 25.8645 40.247 25.3319 40.3817 24.8228C40.5165 24.3136 40.6641 23.858 40.8288 23.4559C40.1101 23.2099 39.4234 22.9831 38.7667 22.7735C38.11 22.5639 37.464 22.2516 36.8244 21.8366C35.6714 21.0793 34.942 20.1339 34.6318 18.998C34.45 18.3327 34.4564 17.3552 34.6511 16.061C34.8457 14.769 35.2201 13.2909 35.7741 11.6267C36.4244 9.6202 37.1453 7.98165 37.9325 6.70461C38.7197 5.42971 39.7186 4.62541 40.9315 4.29599C42.1636 3.96015 43.3208 4.00294 44.4011 4.4222C44.6685 4.5591 45.0813 4.77729 45.6353 5.0789C46.1894 5.38051 46.784 5.76983 47.4194 6.24685L46.7627 12.508C44.5551 11.4277 43.0813 10.9892 42.339 11.1924C41.9475 11.2994 41.5561 11.4277 41.1668 11.5753C40.7753 11.7229 40.3946 11.9646 40.0245 12.2962C39.6181 12.6599 39.3186 12.9978 39.1197 13.3144C38.9229 13.631 38.8566 13.9069 38.9186 14.1401C39.2694 15.4321 41.5475 16.1979 45.753 16.4375C47.045 15.3915 48.3969 14.384 49.813 13.4085" fill="#A3ABB5"/>
<path d="M10.475 29.3405C10.475 19.3188 18.5993 11.1946 28.621 11.1946C30.0478 11.1946 31.436 11.3657 32.7687 11.6759C33.1259 10.2662 33.6414 8.71962 34.3195 7.04899C35.1046 5.07247 35.9324 3.39969 36.8244 1.9772C34.2254 1.19857 31.4724 0.775024 28.6189 0.775024C21.7181 0.775024 15.3885 3.22215 10.4515 7.29499C7.82685 12.0908 6.6589 18.1787 7.54663 24.566C8.17338 29.0795 9.74776 33.1673 11.9681 36.5557C11.0077 34.3438 10.4729 31.9031 10.4729 29.3384L10.475 29.3405Z" fill="#A3ABB5"/>
<path d="M56.1533 21.7253C55.6549 22.0183 55.1629 22.3178 54.6859 22.628C53.334 23.505 52.0698 24.4419 50.9253 25.4088C49.7895 26.3693 48.752 27.3746 47.8408 28.3928C47.4579 28.8185 47.1049 29.2463 46.7669 29.672C47.1563 31.0303 47.46 32.4379 47.6632 33.8925C48.7435 41.683 46.7712 49.0223 42.8246 54.1197C51.4045 49.1913 57.1886 39.944 57.1886 29.3383C57.1886 26.7008 56.8228 24.1489 56.1533 21.7231V21.7253Z" fill="#A3ABB5"/>
<path d="M41.9775 55.2919C44.8203 51.6063 46.5359 47.1334 47.2397 42.5557C47.9456 37.9374 47.4963 33.255 46.5166 28.6859C47.3787 30.8827 47.9584 33.1972 48.2514 35.5588C49.1413 42.5622 47.2332 50.3527 41.9775 55.2919Z" fill="white"/>
<path opacity="0.19" d="M32.7687 11.6758C33.1259 10.2662 33.6415 8.71961 34.3196 7.04898C34.5014 6.59121 34.6853 6.1527 34.8714 5.72702C26.8071 5.49386 18.4582 10.5977 13.6174 19.1306C16.8838 14.3412 22.3834 11.1945 28.6189 11.1945C30.0457 11.1945 31.4339 11.3657 32.7666 11.6758H32.7687Z" fill="#A3ABB5"/>
<path d="M30.9184 32.3117C31.4467 30.778 30.9184 28.9426 29.3248 28.0228L25.3696 25.7383C26.2594 28.517 28.3108 30.9448 30.9184 32.3117Z" fill="#A3ABB5"/>
<path opacity="0.19" d="M56.1533 21.7253C55.6549 22.0183 55.1629 22.3178 54.6859 22.628C53.6527 23.2997 52.673 24.0034 51.7553 24.7307C53.0217 30.0656 52.9511 35.9289 51.2676 41.7494C50.243 45.2896 48.705 48.526 46.7776 51.3796C53.1329 46.1409 57.1865 38.2156 57.1865 29.3383C57.1865 26.7008 56.8207 24.1489 56.1512 21.7231L56.1533 21.7253Z" fill="#A3ABB5"/>
<path opacity="0.35" d="M47.2547 7.85104L47.4237 6.24886C46.7883 5.7697 46.1937 5.38039 45.6397 5.08092C45.0856 4.78144 44.6728 4.56112 44.4054 4.42421C43.3251 4.00495 42.1679 3.96217 40.9358 4.29801C39.7229 4.62957 38.724 5.43173 37.9368 6.70663C37.1496 7.98153 36.4308 9.62222 35.7784 11.6287C35.2223 13.2929 34.8479 14.771 34.6554 16.063C34.4607 17.355 34.4543 18.3347 34.6361 19C34.7067 19.261 34.803 19.5134 34.9206 19.7551C35.4982 15.924 37.0255 12.2405 39.571 9.28852C41.6139 7.10022 44.6492 6.80289 47.2568 7.85318L47.2547 7.85104Z" fill="#A3ABB5"/>
<path opacity="0.2" d="M40.3668 23.3018C40.5208 23.3531 40.6706 23.4044 40.8289 23.4579C40.6641 23.8601 40.5166 24.3157 40.3818 24.8248C40.247 25.3339 40.1401 25.8665 40.0609 26.4248C39.9818 26.9832 39.924 27.5393 39.8855 28.0955C39.8492 28.6516 39.8342 29.18 39.8449 29.6827L41.4257 30.1661C42.0182 29.1009 42.7391 28.027 43.5904 26.9446C44.4397 25.8623 45.398 24.8077 46.4632 23.7831C47.5285 22.7584 48.6943 21.7723 49.9607 20.829C51.227 19.8856 53.6014 18.0396 55.0025 17.2374C55.0025 17.2374 52.0805 12.4223 49.858 13.3849L49.8152 13.4149C48.3991 14.3882 47.0472 15.3978 45.7552 16.4438C45.6589 16.4374 45.5691 16.431 45.4728 16.4246C45.3573 16.5422 45.2418 16.6577 45.1284 16.7754C43.3316 18.7733 41.6267 20.9552 40.3647 23.3039L40.3668 23.3018Z" fill="#A3ABB5"/>
<path d="M85.5102 30.0998C86.3402 30.0998 87.0525 29.8025 87.6472 29.21C88.2397 28.6174 88.537 27.9051 88.537 27.073C88.537 26.2409 88.2397 25.5307 87.6472 24.9361C87.0525 24.3435 86.3402 24.0462 85.5102 24.0462C84.6802 24.0462 83.9679 24.3435 83.3733 24.9361C82.7807 25.5307 82.4834 26.2431 82.4834 27.073C82.4834 27.903 82.7807 28.6174 83.3733 29.21C83.9679 29.8046 84.6781 30.0998 85.5102 30.0998Z" fill="#A3ABB5"/>
</g>
<defs>
<clipPath id="clip0_5_113">
<rect width="212.245" height="57.131" fill="white" transform="translate(0.055542 0.774902)"/>
</clipPath>
</defs>
</svg>
