<svg width="211" height="53" viewBox="0 0 211 53" fill="none" xmlns="http://www.w3.org/2000/svg">
<g clip-path="url(#clip0_5_78)">
<path d="M152.521 16.5208V37.3076C152.521 37.9045 152.036 38.3953 151.433 38.3953C150.836 38.3953 150.345 37.9111 150.345 37.3076V16.5208C150.345 15.9239 150.829 15.433 151.433 15.433C152.03 15.433 152.521 15.9172 152.521 16.5208Z" fill="#A3ABB5"/>
<path d="M157.455 21.4555C156.858 21.4555 156.367 21.9397 156.367 22.5433V37.3142C156.367 37.9111 156.852 38.402 157.455 38.402C158.059 38.402 158.543 37.9178 158.543 37.3142V22.5433C158.543 21.9463 158.059 21.4555 157.455 21.4555Z" fill="#A3ABB5"/>
<path d="M175.171 23.0208C176.451 24.2744 177.095 26.0851 177.095 28.4662V37.3208C177.095 37.9111 176.617 38.3887 176.027 38.3887C175.436 38.3887 174.959 37.9111 174.959 37.3208V28.7116C174.959 26.8677 174.501 25.4616 173.579 24.4932C172.657 23.5182 171.404 23.034 169.812 23.034C168.22 23.034 166.874 23.5514 165.905 24.5861C164.93 25.6208 164.446 27.1397 164.446 29.1494V37.3274C164.446 37.9177 163.968 38.3953 163.378 38.3953H163.345C162.755 38.3953 162.277 37.9177 162.277 37.3274V22.5432C162.277 21.9463 162.761 21.4555 163.365 21.4555C163.962 21.4555 164.453 21.9397 164.453 22.5432V24.3407C164.99 23.306 165.766 22.5167 166.781 21.9662C167.796 21.4157 168.943 21.1437 170.223 21.1437C172.253 21.1437 173.904 21.7672 175.184 23.0208H175.171Z" fill="#A3ABB5"/>
<path d="M196.137 30.7612H182.082C182.142 32.0413 182.454 33.1423 183.011 34.051C183.568 34.9596 184.304 35.6494 185.213 36.1137C186.122 36.578 187.117 36.8102 188.191 36.8102C189.597 36.8102 190.784 36.4719 191.746 35.7887C192.516 35.2448 193.073 34.5484 193.424 33.6994C193.59 33.2948 193.981 33.0229 194.419 33.0229C195.202 33.0229 195.746 33.8387 195.401 34.5418C194.917 35.5234 194.213 36.3658 193.305 37.0688C191.952 38.1102 190.247 38.6341 188.204 38.6341C186.612 38.6341 185.186 38.276 183.926 37.5663C182.666 36.8499 181.678 35.8418 180.961 34.5285C180.245 33.2152 179.894 31.6765 179.894 29.9188C179.894 28.1612 180.245 26.6224 180.948 25.2958C181.651 23.9693 182.633 22.9611 183.893 22.2581C185.153 21.555 186.593 21.2035 188.204 21.2035C189.816 21.2035 191.229 21.555 192.443 22.2581C193.65 22.9611 194.585 23.9096 195.235 25.0969C195.885 26.2841 196.21 27.604 196.21 29.0499C196.21 29.7928 196.19 30.3632 196.15 30.7545L196.137 30.7612ZM193.232 25.7668C192.708 24.878 191.985 24.2081 191.076 23.7504C190.168 23.2928 189.173 23.0673 188.098 23.0673C186.486 23.0673 185.107 23.5846 183.973 24.6193C182.832 25.654 182.202 27.1132 182.082 28.9969H193.995C194.014 27.7367 193.762 26.6622 193.232 25.7734V25.7668Z" fill="#A3ABB5"/>
<path d="M200.223 37.2943C199.367 36.6642 198.77 35.8815 198.438 34.9331C198.213 34.2897 198.717 33.6132 199.4 33.6132H199.593C200.037 33.6132 200.415 33.9183 200.554 34.3428C200.767 34.9662 201.164 35.4968 201.748 35.928C202.544 36.5183 203.612 36.8101 204.958 36.8101C206.139 36.8101 207.061 36.5315 207.737 35.9744C208.407 35.4173 208.746 34.7208 208.746 33.8984C208.746 33.3213 208.56 32.8438 208.188 32.4723C207.817 32.1009 207.346 31.8024 206.776 31.5902C206.205 31.378 205.436 31.1392 204.468 30.8938C203.207 30.5621 202.179 30.2305 201.397 29.8989C200.614 29.5672 199.944 29.0764 199.394 28.4264C198.843 27.7764 198.571 26.9009 198.571 25.8065C198.571 24.9774 198.817 24.2147 199.314 23.5116C199.811 22.8086 200.514 22.2514 201.423 21.8336C202.332 21.4223 203.367 21.2101 204.527 21.2101C206.345 21.2101 207.817 21.6677 208.931 22.5897C209.734 23.2463 210.264 24.0887 210.536 25.1035C210.709 25.7535 210.211 26.3902 209.542 26.3902H209.429C208.945 26.3902 208.56 26.0519 208.427 25.5876C208.248 24.9575 207.903 24.4203 207.399 23.9892C206.683 23.379 205.708 23.0739 204.468 23.0739C203.373 23.0739 202.484 23.3325 201.801 23.8499C201.118 24.3672 200.78 25.0106 200.78 25.7734C200.78 26.4366 200.985 26.9805 201.383 27.405C201.788 27.8295 202.285 28.1611 202.889 28.3999C203.486 28.6387 204.295 28.904 205.31 29.1892C206.53 29.5208 207.505 29.8392 208.228 30.1509C208.951 30.4627 209.575 30.9137 210.092 31.5172C210.609 32.1142 210.875 32.9101 210.895 33.905C210.895 34.8137 210.649 35.6295 210.152 36.3392C209.654 37.0555 208.964 37.6193 208.076 38.0305C207.187 38.4417 206.166 38.654 205.005 38.654C203.061 38.654 201.47 38.203 200.243 37.3076L200.223 37.2943Z" fill="#A3ABB5"/>
<path d="M78.1816 37.8382C76.9745 37.3209 76.0127 36.578 75.3097 35.603C74.6066 34.628 74.2418 33.4806 74.2219 32.1607H78.878C78.9377 33.0494 79.2561 33.7525 79.8265 34.2698C80.3969 34.7872 81.1729 35.0459 82.1678 35.0459C83.1627 35.0459 83.9785 34.8005 84.5556 34.3163C85.1326 33.8321 85.4245 33.1954 85.4245 32.4061C85.4245 31.7627 85.2255 31.2387 84.8342 30.8209C84.4428 30.4096 83.952 30.0846 83.3617 29.8459C82.7714 29.6071 81.9622 29.3418 80.9275 29.0566C79.5214 28.6453 78.3806 28.2341 77.4984 27.8295C76.6163 27.4249 75.8668 26.8147 75.2367 25.9989C74.6066 25.1831 74.2882 24.0887 74.2882 22.729C74.2882 21.4489 74.6066 20.328 75.25 19.3795C75.8933 18.431 76.7887 17.7014 77.9495 17.1907C79.1102 16.6867 80.4301 16.428 81.9224 16.428C84.1576 16.428 85.9683 16.9719 87.3678 18.0596C88.7607 19.1474 89.5367 20.6596 89.676 22.603H84.9005C84.8607 21.8601 84.5423 21.2433 83.952 20.7591C83.3617 20.2749 82.5791 20.0295 81.6107 20.0295C80.7617 20.0295 80.0852 20.2484 79.5811 20.6795C79.077 21.1106 78.8183 21.7474 78.8183 22.5698C78.8183 23.1469 79.0107 23.6311 79.3954 24.0157C79.7801 24.4004 80.251 24.7122 80.8214 24.9443C81.3918 25.1831 82.1944 25.455 83.2291 25.7668C84.6352 26.178 85.7826 26.5959 86.6714 27.0071C87.5602 27.4183 88.3229 28.0418 88.9663 28.8709C89.6097 29.6999 89.9281 30.7811 89.9281 32.1275C89.9281 33.2882 89.6296 34.3627 89.026 35.351C88.4291 36.3459 87.5469 37.1352 86.3862 37.7255C85.2255 38.3158 83.8525 38.6076 82.2607 38.6076C80.7484 38.6076 79.3887 38.3489 78.1816 37.8316V37.8382Z" fill="#A3ABB5"/>
<path d="M118.23 24.7785H115.218V38.402H113.162C111.862 38.402 110.808 37.3474 110.808 36.0474V20.3413C110.808 18.2321 111.405 16.68 112.605 15.6851C113.806 14.6902 115.616 14.226 118.037 14.2923V17.9535C116.983 17.9336 116.246 18.1061 115.835 18.4841C115.424 18.8556 115.212 19.5255 115.212 20.5005V21.2168H118.223V24.7852L118.23 24.7785Z" fill="#A3ABB5"/>
<path d="M124.046 24.7784V33.0958C124.046 33.6728 124.186 34.0907 124.464 34.3494C124.743 34.608 125.214 34.7341 125.877 34.7341H127.893V38.3953H125.161C121.499 38.3953 119.669 36.6177 119.669 33.056V19.857C119.669 18.8024 120.525 17.9468 121.579 17.9468H124.046V21.2034H127.21L128.596 24.7718H124.046V24.7784Z" fill="#A3ABB5"/>
<path d="M147.029 21.2101L137.066 44.9086C136.655 45.8902 135.693 46.527 134.626 46.527H131.76L135.481 37.9642L128.596 21.2101H131.382C132.636 21.2101 133.757 21.9927 134.188 23.1667L137.902 33.2218L141.835 22.7223C142.174 21.8137 143.042 21.2101 144.017 21.2101H147.029Z" fill="#A3ABB5"/>
<path d="M100.288 20.5933C95.3735 20.5933 91.3872 24.5796 91.3872 29.4944C91.3872 34.4092 95.3735 38.3954 100.288 38.3954C105.203 38.3954 109.189 34.4092 109.189 29.4944C109.189 24.5796 105.203 20.5933 100.288 20.5933ZM100.288 33.9913C97.8077 33.9913 95.7913 31.975 95.7913 29.4944C95.7913 27.0137 97.8077 24.9974 100.288 24.9974C102.769 24.9974 104.785 27.0137 104.785 29.4944C104.785 31.975 102.769 33.9913 100.288 33.9913Z" fill="#A3ABB5"/>
<path d="M0.353905 21.2897C3.65034 34.7805 23.5682 24.0157 27.9591 36.1468C28.9938 39.0055 27.0703 46.1622 19.4427 51.8132C29.6703 50.1219 54.1448 43.9203 48.9979 34.1637C43.8443 24.407 7.00647 21.2897 0.353905 21.2897Z" fill="#CCD3DD"/>
<path d="M41.0785 2.47284C28.6488 6.02795 18.4743 7.56673 11.3708 13.3239C4.84421 18.6167 18.209 27.1265 41.9739 21.7606C17.0483 21.6877 29.0866 4.91366 41.0785 2.47284Z" fill="#CCD3DD"/>
<path d="M53.78 33.4938C52.0423 14.3055 20.4509 25.3688 15.357 20.2351C14.4085 19.28 14.2626 18.0331 14.6407 17.0514C16.0733 13.3769 27.0968 8.80703 41.2443 7.1555C42.5376 7.00295 43.4596 5.8356 43.3137 4.54223C43.1744 3.36162 42.1795 2.49274 41.0254 2.47284C41.0121 2.47284 40.9524 2.47284 40.8662 2.47284C40.8132 2.47284 40.7601 2.47284 40.707 2.47284C36.7407 2.93713 33.0728 3.72641 29.7565 4.68152C16.8228 7.81877 -2.23285 14.1397 0.619201 22.9611C3.27227 31.1591 35.6795 23.4387 37.1121 34.827C38.2065 43.5158 12.6044 50.8449 19.0845 52.4831C27.833 52.6357 54.9275 46.1821 53.78 33.4938Z" fill="#A3ABB5"/>
<path d="M18.7529 52.3579C18.7529 52.3579 18.7529 52.2911 18.7997 52.2311C18.7596 52.2778 18.7396 52.3245 18.7529 52.3579Z" fill="#A3ABB5"/>
<path d="M45.9203 26.4367C44.9652 21.1173 31.8922 21.0443 20.6432 20.5668C19.3698 20.527 18.1692 20.4673 17.0483 20.3877C10.7075 20.0096 5.54728 19.28 4.49932 17.005C4.03503 15.9969 4.01513 15.0418 4.3534 14.1397C1.17635 16.5673 -0.475181 19.353 0.659005 22.4969C3.57738 30.5887 38.3657 23.4188 41.8479 33.6C44.5407 30.7811 46.2453 28.2275 45.9203 26.4367Z" fill="#A3ABB5"/>
<path d="M18.7529 52.3571C19.3101 53.5643 62.6346 49.4786 60.9897 33.1954C60.9831 33.1091 60.9632 33.0362 60.9566 32.95C49.8999 43.4163 19.2039 53.1133 18.7529 52.3571Z" fill="#A3ABB5"/>
<path d="M4.50597 17.005C5.55393 19.28 10.7141 20.0096 17.055 20.3876C12.505 20.0626 9.38761 19.3198 9.06261 17.456C7.91516 10.8101 28.5825 5.23863 40.78 2.55904C44.3815 1.76975 15.2973 5.79578 4.35341 14.1397C4.01515 15.0417 4.03505 15.9968 4.49933 17.005H4.50597Z" fill="#A3ABB5"/>
<path d="M4.50597 17.005C5.55393 19.28 10.7141 20.0096 17.055 20.3876C12.505 20.0626 9.38761 19.3198 9.06261 17.456C7.91516 10.8101 28.5825 5.23863 40.78 2.55904C44.3815 1.76975 15.2973 5.79578 4.35341 14.1397C4.01515 15.0417 4.03505 15.9968 4.49933 17.005H4.50597Z" fill="#A3ABB5"/>
<path d="M20.6499 20.5668C31.8922 21.0443 44.9719 21.1239 45.927 26.4367C46.2453 28.2275 44.5407 30.7877 41.8545 33.6C41.9606 33.8984 42.0336 34.2168 42.08 34.5484C43.2739 43.0714 20.0131 50.8582 18.806 52.2311C18.7596 52.2908 18.7463 52.3306 18.7596 52.3571C19.2106 53.1133 49.9066 43.4163 60.9632 32.95C59.3183 19.6183 35.4473 21.0443 20.6499 20.5668Z" fill="#A3ABB5"/>
<path d="M20.6499 27.2458C26.6392 27.4779 43.8642 28.4595 44.2157 34.6876C44.4545 38.8927 39.9974 44.3249 18.7596 52.357C59.2188 46.0361 61.3545 25.2029 20.6565 27.2458H20.6499Z" fill="#A3ABB5"/>
<path d="M48.3014 6.77081C50.1367 6.77081 51.6244 5.28307 51.6244 3.44784C51.6244 1.61262 50.1367 0.124878 48.3014 0.124878C46.4662 0.124878 44.9785 1.61262 44.9785 3.44784C44.9785 5.28307 46.4662 6.77081 48.3014 6.77081Z" fill="#A3ABB5"/>
<path d="M45.5157 2.8177C45.5157 2.1478 45.7147 1.53096 46.053 1.01361C45.3963 1.61718 44.9851 2.48606 44.9851 3.4478C44.9851 5.28505 46.4708 6.77076 48.3081 6.77076C49.4754 6.77076 50.5035 6.16719 51.0938 5.25852C50.5035 5.80903 49.7142 6.14066 48.8387 6.14066C47.0015 6.14066 45.5157 4.65494 45.5157 2.8177Z" fill="#A3ABB5"/>
<path d="M48.8387 2.83102C49.2856 2.83102 49.6479 2.46873 49.6479 2.02183C49.6479 1.57493 49.2856 1.21265 48.8387 1.21265C48.3918 1.21265 48.0295 1.57493 48.0295 2.02183C48.0295 2.46873 48.3918 2.83102 48.8387 2.83102Z" fill="#A3ABB5"/>
<path d="M157.455 19.7244C158.639 19.7244 159.598 18.7652 159.598 17.582C159.598 16.3989 158.639 15.4397 157.455 15.4397C156.272 15.4397 155.313 16.3989 155.313 17.582C155.313 18.7652 156.272 19.7244 157.455 19.7244Z" fill="#A3ABB5"/>
<path d="M155.651 17.1775C155.651 16.7464 155.777 16.3484 155.996 16.0101C155.572 16.4015 155.306 16.9586 155.306 17.5821C155.306 18.7693 156.268 19.7244 157.449 19.7244C158.205 19.7244 158.868 19.3331 159.246 18.7428C158.861 19.0943 158.351 19.3132 157.793 19.3132C156.606 19.3132 155.651 18.3515 155.651 17.1708V17.1775Z" fill="#A3ABB5"/>
<path d="M157.8 17.1841C158.089 17.1841 158.324 16.9495 158.324 16.6601C158.324 16.3707 158.089 16.1361 157.8 16.1361C157.511 16.1361 157.276 16.3707 157.276 16.6601C157.276 16.9495 157.511 17.1841 157.8 17.1841Z" fill="#A3ABB5"/>
</g>
<defs>
<clipPath id="clip0_5_78">
<rect width="210.574" height="52.4312" fill="white" transform="translate(0.300842 0.124817)"/>
</clipPath>
</defs>
</svg>
