<svg width="190" height="63" viewBox="0 0 190 63" fill="none" xmlns="http://www.w3.org/2000/svg">
<g clip-path="url(#clip0_5_193)">
<path d="M3.25767 7.2667C19.4942 4.9544 35.7207 2.65217 51.9572 0.33987C52.8502 0.219141 53.7818 0.507549 54.4717 1.08269C55.1599 1.65783 55.5896 2.53144 55.6164 3.43187C55.6064 6.79384 55.6164 10.1541 55.6164 13.506C46.9669 20.2568 39.4823 28.4748 33.5788 37.7139C32.7127 36.9057 31.8466 36.079 31.0459 35.2071C32.4425 34.1574 33.5033 32.6718 34.0153 31.0101C34.3325 30.0543 34.3694 29.013 34.1647 28.0287C33.923 26.8868 33.4009 25.8288 32.8604 24.8059C32.283 23.7378 31.7895 22.5959 30.9049 21.7324C30.2067 21.008 29.2482 20.4882 28.2243 20.4781C27.145 20.4597 26.017 20.8588 25.3187 21.7139C24.7413 22.4098 24.5282 23.3387 24.5282 24.2308C24.5282 25.1229 24.7615 26.0317 25.114 26.8583C25.8777 28.8084 26.8278 30.6747 27.9154 32.4571C25.1039 34.035 21.8912 34.6671 18.7355 35.1031C12.6474 35.9382 6.41836 35.6514 0.422607 34.3603V10.3771C0.469607 8.84456 1.72683 7.4612 3.25263 7.2667H3.25767ZM27.6956 14.7418C27.2675 15.2147 26.8949 15.7362 26.5877 16.2929C26.4753 16.5444 26.1412 16.6366 25.9264 16.4689C25.4044 16.1537 24.9025 15.8183 24.3804 15.5031C23.6822 16.3951 23.0678 17.3694 22.5458 18.3821C23.375 18.902 24.2025 19.4318 25.0401 19.9516C25.4866 19.4503 25.8693 18.8936 26.2033 18.3168C26.3057 18.1122 26.5844 18.0099 26.7891 18.1407C27.3296 18.4475 27.8685 18.7527 28.419 19.0596C28.7077 18.7712 28.9226 18.419 29.1458 18.0753C29.5369 17.4633 29.918 16.8311 30.2637 16.1906C29.4077 15.6892 28.56 15.2063 27.6939 14.7418H27.6956Z" fill="#A3ABB5"/>
<path d="M59.8162 4.3424C60.7478 3.98022 61.864 4.75154 61.8456 5.75426C61.8271 20.946 61.7985 36.1461 61.7902 51.3378C61.8372 51.9314 61.7432 52.582 61.2782 53.0096C60.7109 53.5948 59.7054 53.5764 59.1179 53.0096C59.9001 52.7866 60.5329 52.0622 60.5329 51.2356V5.7442C60.5514 5.18751 60.2543 4.67609 59.8162 4.3424Z" fill="#A3ABB5"/>
<path d="M35.3682 41.4012C40.8604 32.8395 47.7139 25.1514 55.608 18.726C55.608 29.3853 55.598 40.0363 55.6181 50.6957C55.655 51.9113 55.1985 53.1371 54.334 54.0006C53.8506 54.4919 53.2077 54.8541 52.5095 54.8826C45.5083 54.8927 38.5071 54.8726 31.5059 54.8927C28.9276 57.3911 26.3393 59.8795 23.751 62.3678C22.5962 59.8795 21.4514 57.381 20.2966 54.8927H4.18758C3.81494 54.8826 3.43392 54.9212 3.06128 54.8457C2.05583 54.6512 1.17124 53.9537 0.733141 53.0264C0.462896 52.4781 0.378968 51.856 0.415896 51.2524C0.425968 46.8608 0.415896 42.4593 0.415896 38.0577C7.05453 39.6355 13.9987 39.9793 20.7397 38.9497C24.0548 38.4769 27.3313 37.454 30.2167 35.7554C31.8181 37.7424 33.6342 39.5433 35.3648 41.4012H35.3682Z" fill="#CCD3DD"/>
<path d="M27.8735 25.086C28.8236 24.4823 30.0607 24.3901 31.1131 24.7707C31.4757 24.8915 31.8483 25.0776 32.0347 25.4297C32.2948 25.8573 32.1924 26.367 32.1186 26.8315C31.662 28.8655 30.3225 30.6764 28.5248 31.7428C28.0414 31.0922 27.5748 30.4333 27.1283 29.7642C26.6717 29.0684 26.5609 28.2048 26.6163 27.3865C26.6818 26.4861 27.0997 25.5756 27.8735 25.0843V25.086Z" fill="#A3ABB5"/>
<path d="M109.17 38.5338H110.966V43.5994C111.458 42.7543 112.031 41.9679 112.568 41.158C113.3 41.1463 114.031 41.158 114.765 41.158C114.067 41.9461 113.38 42.7208 112.684 43.5088C113.484 44.6507 114.263 45.8027 115.052 46.9429H112.809C112.351 46.1548 111.883 45.3684 111.425 44.5803C111.265 44.7748 111.116 44.9576 110.966 45.1504V46.9412C110.36 46.9295 109.765 46.9412 109.159 46.9295C109.182 44.1226 109.17 41.3273 109.17 38.5305V38.5338Z" fill="#A3ABB5"/>
<path d="M139.132 38.5338H140.608C140.631 41.3291 140.551 44.136 140.653 46.9329H139.337C139.314 46.6361 139.292 46.3276 139.28 46.0308C138.651 47.1257 137.061 47.3772 136.054 46.6579C135.184 46.0425 134.852 44.9124 134.909 43.8845C134.943 42.9371 135.344 41.9562 136.156 41.4313C137.049 40.8378 138.432 40.883 139.119 41.7734C139.131 40.6902 139.131 39.6053 139.131 38.5322L139.132 38.5338ZM137.417 42.253C136.868 42.4357 136.547 42.9941 136.455 43.5424C136.341 44.2048 136.41 44.9794 136.89 45.5043C137.393 46.0408 138.354 46.0174 138.812 45.4473C139.28 44.8889 139.121 44.1125 139.132 43.4502C139.132 42.595 138.206 41.9444 137.417 42.2513V42.253Z" fill="#A3ABB5"/>
<path d="M116.022 38.6932C116.616 38.4534 117.407 38.8642 117.36 39.5483C117.405 40.2895 116.457 40.6902 115.873 40.3247C115.243 39.9944 115.324 38.8978 116.022 38.6932Z" fill="#A3ABB5"/>
<path d="M99.2619 39.892C99.8561 39.7545 100.44 39.6187 101.034 39.4812V41.1362H102.327V42.4709H101.046V44.5585C101.058 44.8553 101.046 45.1856 101.264 45.4137C101.55 45.6535 101.951 45.5394 102.293 45.5277V46.9077C101.562 47.0787 100.714 47.171 100.027 46.7602C99.4667 46.4298 99.3072 45.744 99.272 45.1404C99.2603 44.25 99.272 43.3596 99.2602 42.4709H98.4831V41.1362H99.2602C99.2602 40.7254 99.2602 40.3146 99.2602 39.892H99.2619Z" fill="#A3ABB5"/>
<path d="M103.163 41.5235C104.182 41.0222 105.382 40.8847 106.481 41.158C107.339 41.3743 107.911 42.2194 107.957 43.0863C108.014 44.364 107.912 45.6535 108.059 46.9429H106.434C106.401 46.7484 106.366 46.5556 106.342 46.3611C105.61 47.171 104.225 47.342 103.379 46.6461C102.533 45.9503 102.579 44.4898 103.425 43.8157C104.192 43.2003 105.233 43.0846 106.183 43.0846C106.171 42.7878 106.045 42.4692 105.748 42.3653C105.004 42.1138 104.192 42.3418 103.517 42.6956C103.391 42.2965 103.277 41.9075 103.163 41.5202V41.5235ZM104.548 45.0264C104.422 45.7222 105.337 46.0073 105.807 45.6317C106.31 45.3349 106.23 44.7078 106.23 44.2165C105.612 44.2165 104.674 44.2617 104.548 45.0264Z" fill="#A3ABB5"/>
<path d="M118.597 41.5236C119.559 41.0558 120.714 40.8847 121.754 41.2033C122.555 41.4548 123.025 42.2765 123.059 43.0746C123.116 44.3523 123.002 45.6535 123.151 46.9312H121.823C121.79 46.7149 121.766 46.5087 121.731 46.2924C121.021 47.1257 119.649 47.3538 118.78 46.6697C117.934 45.9973 117.979 44.5586 118.825 43.8962C119.602 43.2691 120.657 43.2004 121.617 43.1652C121.605 42.7879 121.479 42.3771 121.113 42.2295C120.381 41.9327 119.545 42.1725 118.871 42.5146C118.768 42.1842 118.664 41.8522 118.595 41.5219L118.597 41.5236ZM119.992 44.4781C119.512 44.7984 119.488 45.62 120.004 45.9151C120.507 46.1666 121.159 45.9604 121.467 45.4926C121.743 45.0935 121.617 44.5804 121.65 44.1226C121.078 44.1343 120.472 44.1461 119.992 44.4764V44.4781Z" fill="#A3ABB5"/>
<path d="M125.301 41.5689C126.285 40.9418 127.567 40.9066 128.641 41.3056C128.549 41.6712 128.459 42.0367 128.378 42.4006C127.725 42.1491 126.924 42.0585 126.307 42.4459C125.278 43.1082 125.242 44.8185 126.192 45.5613C126.834 46.0409 127.715 45.9386 128.423 45.6754C128.492 46.0409 128.561 46.3947 128.63 46.7586C127.406 47.1929 125.872 47.2147 124.866 46.2908C123.574 45.0348 123.757 42.5599 125.301 41.5672V41.5689Z" fill="#A3ABB5"/>
<path d="M129.477 41.5571C130.233 41.1346 131.124 40.9988 131.983 41.0658C132.521 41.1111 133.081 41.3173 133.437 41.7382C133.779 42.1373 133.929 42.6856 133.964 43.2104C133.988 44.4546 133.919 45.6971 134.056 46.9296H132.729C132.695 46.7133 132.672 46.507 132.636 46.2907C131.938 47.1006 130.6 47.3404 129.719 46.6898C128.816 46.0174 128.861 44.4982 129.764 43.8376C130.542 43.244 131.572 43.1752 132.522 43.1417C132.499 42.7544 132.351 42.3201 131.95 42.1725C131.23 41.921 130.417 42.139 129.764 42.481C129.672 42.1842 129.581 41.8657 129.479 41.5571H129.477ZM130.884 44.4898C130.392 44.8101 130.404 45.6988 130.965 45.9386C131.559 46.1901 132.314 45.8363 132.497 45.2192C132.578 44.8537 132.531 44.4781 132.542 44.1126C131.97 44.136 131.352 44.136 130.884 44.4898Z" fill="#A3ABB5"/>
<path d="M142.211 42.1054C143.011 40.9635 144.796 40.6785 145.917 41.5118C146.786 42.196 146.993 43.4167 146.855 44.468H142.976C143 45.0381 143.33 45.5864 143.879 45.7809C144.68 46.0777 145.573 45.9402 146.35 45.6904C146.419 46.0325 146.488 46.3628 146.568 46.7065C145.699 47.0369 144.737 47.1408 143.822 47.0033C142.929 46.8658 142.095 46.2622 141.786 45.3936C141.397 44.3205 141.534 43.0427 142.209 42.1071L142.211 42.1054ZM143.434 42.424C143.159 42.6973 143.057 43.0746 142.976 43.4401H145.516C145.482 43.0981 145.423 42.7208 145.195 42.4475C144.784 41.9109 143.879 41.9344 143.433 42.424H143.434Z" fill="#A3ABB5"/>
<path d="M149.12 42.0367C149.623 41.1916 150.744 40.7925 151.648 41.1916C152.049 41.3626 152.346 41.7047 152.529 42.0937C152.906 41.5454 153.491 41.101 154.165 41.0557C154.749 40.987 155.367 41.1698 155.755 41.6258C156.247 42.1742 156.339 42.9488 156.339 43.6564V46.9312H154.909C154.909 45.8011 154.921 44.6726 154.909 43.5542C154.897 43.0528 154.726 42.424 154.177 42.2764C153.524 42.0601 152.849 42.6537 152.828 43.3026C152.794 44.5116 152.828 45.7222 152.804 46.9312H151.374V43.5424C151.374 43.0981 151.248 42.5732 150.813 42.3435C150.379 42.1155 149.818 42.31 149.554 42.6973C149.348 42.9706 149.257 43.3244 149.269 43.6665V46.953H147.839C147.815 45.0364 147.884 43.1081 147.794 41.1899H149.052C149.086 41.4531 149.098 41.7483 149.121 42.035L149.12 42.0367Z" fill="#A3ABB5"/>
<path d="M73.8757 41.2034H74.7569C75.237 42.7896 75.7758 44.3524 76.1753 45.9621C76.4724 44.3423 77.0112 42.7896 77.4342 41.2034H78.4866C77.8689 43.1082 77.2512 45.0147 76.6452 46.9313H75.6734C75.2051 45.4138 74.6545 43.9181 74.2886 42.3671C73.8992 43.9181 73.3385 45.4138 72.835 46.9313H71.8732C71.3008 45.0147 70.7183 43.1082 70.1459 41.2034H71.2336C71.6348 42.7896 72.0914 44.3641 72.4355 45.9738C72.8131 44.3423 73.3855 42.7896 73.8773 41.2034H73.8757Z" fill="#A3ABB5"/>
<path d="M78.7837 41.1932H79.8714C80.2608 42.7795 80.7291 44.3422 81.0615 45.9402C81.4845 44.3422 82.0333 42.7795 82.5252 41.1932H83.4181C83.8865 42.7795 84.4471 44.3423 84.8248 45.9637C85.1336 44.3439 85.6707 42.7795 86.0954 41.1932H87.1479C86.5302 43.0981 85.9125 45.0163 85.2948 46.9329H84.3229C83.8546 45.4037 83.2939 43.8979 82.9381 42.3452C82.5722 43.908 81.988 45.4154 81.4845 46.9329H80.5227C79.9385 45.0281 79.3561 43.1098 78.7837 41.1932Z" fill="#A3ABB5"/>
<path d="M91.1512 41.1932H92.0324C92.5125 42.7795 93.0513 44.3423 93.4508 45.952C93.7479 44.3322 94.2867 42.7795 94.7097 41.1932H95.7622C95.1445 43.1098 94.5268 45.0163 93.909 46.9329H92.9472C92.4672 45.3919 91.9065 43.8744 91.5507 42.3117C91.2183 43.8979 90.6006 45.3919 90.1088 46.9329H89.1369C88.5646 45.0163 87.9821 43.1098 87.4097 41.205H88.4974C88.8868 42.7912 89.3669 44.3657 89.6875 45.9754C90.0988 44.3557 90.6594 42.7812 91.1512 41.1949V41.1932Z" fill="#A3ABB5"/>
<path d="M115.497 41.1463H117.305C117.293 43.0746 117.305 45.0029 117.305 46.9312H115.509C115.485 45.0029 115.497 43.0746 115.497 41.1463Z" fill="#A3ABB5"/>
<path d="M156.786 41.1697H158.399C158.857 42.5732 159.382 43.9532 159.772 45.3919C160.161 43.9884 160.584 42.5849 160.984 41.1815H162.563C161.796 43.1668 161.157 45.2091 160.275 47.1374C159.772 48.2793 158.857 49.3625 157.564 49.5788C157.45 49.168 157.336 48.7455 157.232 48.3347C158.009 48.1066 158.719 47.5365 158.971 46.7602C158.296 44.8771 157.507 43.0293 156.786 41.1697Z" fill="#A3ABB5"/>
<path d="M165.846 41.8422C166.808 40.987 168.284 40.9065 169.438 41.3743C169.358 41.6477 169.279 41.9227 169.198 42.196C168.488 41.8757 167.609 41.8086 166.911 42.2077C165.63 42.9958 165.63 45.2209 166.956 45.9738C167.654 46.3611 168.524 46.237 169.232 45.9402C169.289 46.2035 169.346 46.4768 169.415 46.7384C168.294 47.1828 166.875 47.2398 165.892 46.4534C164.554 45.3232 164.564 43.0075 165.846 41.8438V41.8422Z" fill="#A3ABB5"/>
<path d="M171.842 41.2151C172.757 40.9519 173.821 41.0676 174.565 41.6947C175.206 42.2313 175.515 43.0646 175.527 43.8745C175.56 44.6962 175.355 45.5631 174.783 46.1801C173.73 47.3438 171.647 47.3891 170.618 46.1801C169.887 45.3467 169.761 44.126 170.046 43.0881C170.286 42.2095 170.973 41.4683 171.842 41.2168V41.2151ZM172.31 41.9227C171.636 42.082 171.201 42.7209 171.063 43.3597C170.857 44.2619 171.018 45.3451 171.783 45.9504C172.378 46.43 173.306 46.3612 173.831 45.8028C174.632 44.9477 174.667 43.5325 174.049 42.5616C173.695 41.9915 172.952 41.74 172.31 41.9227Z" fill="#A3ABB5"/>
<path d="M176.589 41.1932H177.492C177.516 41.5135 177.526 41.8203 177.537 42.1406C177.984 41.3072 179.001 40.8629 179.918 41.148C180.433 41.2955 180.787 41.7298 181.005 42.1976C181.359 41.5705 182.024 41.0675 182.778 41.0675C183.315 41.0222 183.876 41.2268 184.231 41.6376C184.69 42.1507 184.816 42.87 184.816 43.5323V46.9211H183.787V43.5323C183.763 43.031 183.661 42.4709 183.249 42.1406C182.815 41.8103 182.14 41.8673 181.739 42.2429C181.406 42.5279 181.235 42.974 181.247 43.4066V46.9211H180.218C180.218 45.7122 180.23 44.5133 180.206 43.3043C180.195 42.7225 179.886 42.0383 179.244 41.9461C178.398 41.7751 177.677 42.6084 177.665 43.4066C177.653 44.5703 177.653 45.7457 177.665 46.9094C177.323 46.9211 176.978 46.9211 176.636 46.9211C176.612 45.0264 176.67 43.1098 176.591 41.1932H176.589Z" fill="#A3ABB5"/>
<path d="M96.8818 45.2427C97.4878 44.9795 98.2196 45.5161 98.1172 46.1666C98.1407 46.782 97.476 47.2281 96.9053 47.0118C96.1281 46.7954 96.1046 45.506 96.8818 45.2427Z" fill="#A3ABB5"/>
<path d="M162.907 45.3115C163.468 44.9577 164.314 45.3685 164.292 46.0526C164.384 46.6915 163.72 47.2515 163.102 47.0336C162.358 46.829 162.256 45.6754 162.907 45.3098V45.3115Z" fill="#A3ABB5"/>
<path d="M87.9603 12.1613H91.1747V21.1372C92.0157 19.6197 93.0614 18.2464 93.9997 16.801H97.8721C96.6417 18.186 95.4248 19.5694 94.1944 20.9544C95.6078 22.9833 96.9825 25.0223 98.3958 27.0395C97.0815 27.0764 95.7655 27.0395 94.4512 27.0512C93.6237 25.6545 92.808 24.2577 91.9788 22.8492C91.7102 23.1778 91.4433 23.5048 91.1747 23.8335V27.0395H87.9603C87.9603 22.0846 87.9603 17.1296 87.9603 12.1613Z" fill="#A3ABB5"/>
<path d="M147.507 12.1613H150.112V24.7674C150.123 25.5321 150.149 26.2849 150.186 27.0512H147.859C147.822 26.5163 147.81 25.9831 147.737 25.4482C146.726 27.2575 144.193 27.7806 142.439 26.7964C141.111 26.0921 140.307 24.6584 140.089 23.2013C139.846 21.6218 140.04 19.9215 140.942 18.5616C141.66 17.4566 142.891 16.692 144.217 16.6065C145.434 16.4975 146.798 16.8865 147.505 17.9429C147.505 16.0246 147.505 14.093 147.505 12.1613H147.507ZM144.645 18.6589C144.035 18.8048 143.512 19.2055 143.196 19.727C142.672 20.5771 142.563 21.6218 142.672 22.5926C142.77 23.431 143.122 24.2929 143.841 24.7792C144.717 25.3862 146.033 25.3007 146.775 24.5243C147.359 23.9659 147.542 23.1158 147.505 22.326C147.468 21.4507 147.651 20.505 147.164 19.7153C146.701 18.8534 145.593 18.4157 144.643 18.6589H144.645Z" fill="#A3ABB5"/>
<path d="M100.064 12.4531C100.868 12.1378 101.951 12.3927 102.329 13.2311C102.718 13.9957 102.389 15.0521 101.562 15.3808C100.867 15.6843 99.9669 15.587 99.455 14.9917C98.7735 14.2271 99.0538 12.7935 100.064 12.4531Z" fill="#A3ABB5"/>
<path d="M66.5404 12.9142H77.4274V15.5987H73.555V27.0512H70.3289V15.5987H66.5421V12.9142H66.5404Z" fill="#A3ABB5"/>
<path d="M112.205 12.9142C113.313 12.9259 114.421 12.9142 115.53 12.9259C117.053 17.6377 118.599 22.3378 120.121 27.0512H117.333C116.907 25.7148 116.48 24.3801 116.054 23.0437H111.572C111.171 24.3801 110.757 25.7148 110.355 27.0512H107.665C109.187 22.3394 110.696 17.626 112.207 12.9142H112.205ZM113.751 15.0152C113.301 17.0676 112.632 19.0714 111.997 21.0751H115.601C115.04 19.2407 114.384 17.4432 113.944 15.5853C113.895 15.3908 113.847 15.1963 113.749 15.0152H113.751Z" fill="#A3ABB5"/>
<path d="M77.3049 17.4683C78.6695 16.7641 80.2272 16.5209 81.7379 16.5813C82.9062 16.6417 84.1617 17.0072 84.9288 17.9529C85.7328 18.9372 85.8671 20.2602 85.8184 21.4876C85.8554 23.3337 85.7211 25.1916 85.9762 27.0378C85.0144 27.0613 84.0526 27.0378 83.0908 27.0495C83.0304 26.6974 82.9565 26.3453 82.8961 25.9931C81.6171 27.5106 79.0237 27.7538 77.5499 26.4056C76.15 25.1179 76.3078 22.5926 77.8185 21.4507C79.1697 20.3943 80.9725 20.2116 82.6292 20.1998C82.6779 19.6046 82.2885 19.0345 81.7043 18.8886C80.4135 18.5482 79.0489 18.9255 77.8924 19.5207C77.7212 18.8282 77.5029 18.1491 77.3082 17.4683H77.3049ZM80.2406 22.7636C79.6078 23.2365 79.5592 24.3666 80.2406 24.816C80.996 25.2771 82.0552 24.925 82.4932 24.1839C82.8592 23.5886 82.6645 22.8592 82.7131 22.2036C81.8604 22.2036 80.9473 22.2405 80.2406 22.762V22.7636Z" fill="#A3ABB5"/>
<path d="M123.347 17.299C125.039 16.4237 127.111 16.4002 128.863 17.0676C128.729 17.7232 128.559 18.3671 128.4 19.011C127.378 18.5851 126.184 18.4409 125.137 18.8651C124.247 19.2172 123.614 20.0674 123.408 20.9913C123.201 21.9756 123.299 23.0688 123.858 23.9307C124.296 24.5981 125.026 25.0474 125.818 25.1698C126.72 25.304 127.633 25.1581 128.474 24.8295C128.596 25.4733 128.717 26.1172 128.826 26.7611C127.572 27.2474 126.171 27.3799 124.845 27.1988C123.579 27.016 122.36 26.3721 121.605 25.3291C120.68 24.0665 120.472 22.4015 120.741 20.8957C121.033 19.3782 121.983 18.0049 123.346 17.3007L123.347 17.299Z" fill="#A3ABB5"/>
<path d="M130.385 17.4935C131.811 16.7037 133.514 16.474 135.111 16.6803C136.23 16.8261 137.326 17.47 137.826 18.5147C138.459 19.7287 138.313 21.1506 138.325 22.4618C138.35 23.9927 138.251 25.5354 138.471 27.0529H136.121C136.061 26.6639 136.012 26.2749 135.95 25.8875C134.719 27.4184 132.187 27.794 130.664 26.5197C129.216 25.2923 129.35 22.7787 130.847 21.6369C132.223 20.5687 134.05 20.3977 135.742 20.3977C135.742 19.9601 135.681 19.4872 135.401 19.1217C135.048 18.6488 134.439 18.4778 133.867 18.4409C132.831 18.3923 131.784 18.6723 130.896 19.1938C130.713 18.6237 130.543 18.0519 130.384 17.4935H130.385ZM133.247 22.4602C132.784 22.6664 132.371 23.0554 132.274 23.5652C132.128 24.1722 132.311 24.9368 132.907 25.2537C133.894 25.74 135.196 25.2168 135.634 24.2208C135.915 23.54 135.743 22.7871 135.78 22.0711C134.928 22.0594 134.04 22.0946 133.247 22.4602Z" fill="#A3ABB5"/>
<path d="M153.961 17.4684C155.094 16.6417 156.579 16.4355 157.93 16.7037C158.892 16.8983 159.768 17.4684 160.317 18.2833C161.182 19.5593 161.365 21.1741 161.158 22.6681H154.303C154.328 23.7245 154.998 24.7205 156.02 25.0491C157.408 25.5103 158.942 25.2805 160.307 24.8312C160.43 25.4264 160.551 26.0217 160.685 26.6035C159.334 27.1502 157.848 27.3078 156.411 27.2105C155.072 27.1015 153.721 26.5432 152.88 25.4616C151.941 24.2828 151.698 22.6932 151.881 21.2227C152.052 19.789 152.745 18.3319 153.964 17.47L153.961 17.4684ZM155.263 18.8903C154.691 19.3883 154.41 20.1294 154.313 20.8572C155.81 20.8572 157.296 20.8454 158.795 20.8572C158.82 20.0556 158.551 19.1804 157.856 18.7075C157.078 18.1978 155.956 18.2699 155.263 18.8903Z" fill="#A3ABB5"/>
<path d="M166.88 16.8848C167.976 16.4472 169.328 16.4723 170.289 17.2135C170.728 17.5287 171.02 17.9915 171.251 18.4761C171.775 17.6863 172.53 17.0424 173.443 16.7507C174.576 16.422 175.916 16.5813 176.792 17.418C177.694 18.2682 177.986 19.5559 178.009 20.7582C178.021 22.8592 178.009 24.9485 178.009 27.0378H175.464V21.2327C175.453 20.5285 175.342 19.7639 174.869 19.2038C174.393 18.6572 173.541 18.5599 172.908 18.8634C172.153 19.2273 171.726 20.0539 171.74 20.8672C171.728 22.9196 171.74 24.972 171.74 27.0378H169.195V20.9896C169.183 20.3088 169.037 19.5693 168.525 19.0831C167.941 18.5482 166.991 18.5733 166.382 19.0596C165.798 19.509 165.469 20.2501 165.469 20.9913V27.0395H162.924V21.112C162.924 19.6783 162.949 18.2464 162.85 16.8127H165.091C165.128 17.3224 165.165 17.8322 165.2 18.3436C165.638 17.7484 166.174 17.1782 166.88 16.8865V16.8848Z" fill="#A3ABB5"/>
<path d="M99.1628 16.801C100.234 16.8127 101.306 16.801 102.377 16.801V27.0512H99.1628V16.801Z" fill="#A3ABB5"/>
<path d="M178.803 16.8244H181.653C182.469 19.3262 183.407 21.7911 184.1 24.3297C184.77 21.8162 185.537 19.3262 186.256 16.8244H189.057C188.119 19.3514 187.194 21.8883 186.256 24.4153C185.646 25.9814 185.039 27.5609 184.112 28.9812C183.223 30.341 181.823 31.4461 180.191 31.7009C179.996 30.9715 179.802 30.2438 179.607 29.5144C180.935 29.1505 182.103 28.1897 182.652 26.9271C182.774 26.6353 182.591 26.3436 182.494 26.0887C181.252 22.9917 180.035 19.9064 178.805 16.8228L178.803 16.8244Z" fill="#A3ABB5"/>
</g>
<defs>
<clipPath id="clip0_5_193">
<rect width="188.646" height="62.0547" fill="white" transform="translate(0.409241 0.313049)"/>
</clipPath>
</defs>
</svg>
