<svg width="159" height="63" viewBox="0 0 159 63" fill="none" xmlns="http://www.w3.org/2000/svg">
<g clip-path="url(#clip0_5_162)">
<path d="M96.4548 28.1758L98.5408 35.7816L101.72 25.7609C102 24.8969 103.119 24.439 104.035 24.6937C105.002 24.9742 105.534 26.0672 105.231 26.9571L100.501 40.9725C100.221 41.8366 99.5854 42.3976 98.773 42.3976H98.5183C97.68 42.3976 96.9932 41.814 96.7643 40.9725L94.7041 33.0604L92.6438 40.9725C92.4149 41.8108 91.7282 42.3976 90.8899 42.3976H90.6352C89.8227 42.3976 89.1843 41.8366 88.907 40.9725L84.1772 26.9571C83.8709 26.0672 84.4061 24.9742 85.3734 24.6937C86.289 24.439 87.4078 24.8969 87.6883 25.7609L90.8673 35.7816L92.9534 28.1758C93.1565 27.4117 93.7433 26.9539 94.6331 26.9539H94.7847C95.6745 26.9539 96.2613 27.4117 96.4645 28.1758H96.4548Z" fill="#A3ABB5"/>
<path d="M115.684 41.4271C114.488 42.217 112.988 42.4943 111.589 42.4943C108.181 42.4943 105.383 40.0278 105.383 36.2878C105.383 32.5478 108.181 30.1587 111.589 30.1587C114.997 30.1587 117.667 32.651 117.667 36.391C117.667 37.0261 117.131 37.484 116.574 37.484H108.916C109.094 38.8575 110.596 39.4443 111.84 39.4443C112.553 39.4443 113.162 39.3927 113.901 38.8833C114.713 38.3223 115.629 38.477 116.138 39.0606C116.799 39.8247 116.545 40.9177 115.68 41.4271H115.684ZM114.104 35.2722C113.927 33.8213 112.933 33.1088 111.612 33.1088C110.29 33.1088 109.271 33.7697 108.965 35.2722H114.104Z" fill="#A3ABB5"/>
<path d="M126.975 30.1587C130.002 30.1587 132.749 32.3705 132.749 36.3136C132.749 40.2567 130.002 42.4943 126.975 42.4943C125.627 42.4943 124.176 41.8333 123.412 40.5856V40.8145C123.386 41.6786 122.574 42.3911 121.632 42.3911C120.691 42.3911 119.852 41.7044 119.852 40.8145V25.374C119.852 24.4842 120.665 23.7974 121.632 23.7974C122.599 23.7974 123.386 24.51 123.412 25.374V32.0642C124.431 30.4875 126.211 30.1555 126.975 30.1555V30.1587ZM126.288 33.3377C124.685 33.3377 123.389 34.7628 123.389 36.3394C123.389 37.916 124.685 39.3411 126.288 39.3411C128.068 39.3411 129.086 37.916 129.086 36.3394C129.086 34.7628 128.071 33.3377 126.288 33.3377Z" fill="#A3ABB5"/>
<path d="M85.1638 56.8289C86.1568 56.4484 87.095 56.9804 87.4529 57.7187C87.8334 58.5087 88.7007 59.3727 90.2773 59.3727C91.8539 59.3727 92.8212 58.6602 92.8469 57.5156C92.8727 56.7257 92.5149 56.039 90.7351 55.5328L88.6233 54.9492C84.7575 53.753 84.0966 51.5413 84.0966 49.9647C84.0966 46.8372 86.7662 44.7254 90.1258 44.7254C92.6438 44.7254 94.5267 45.8184 95.4682 47.6497C95.9002 48.488 95.5456 49.3037 94.9072 49.7099C93.9915 50.2935 93.179 50.0388 92.5664 49.2779C91.8281 48.3365 90.8609 48.056 90.0742 48.056C88.7781 48.056 87.8108 48.8201 87.8108 49.8615C87.8108 50.3193 87.9881 51.1576 89.6937 51.6412L91.7798 52.2506C96.0292 53.4725 96.6385 55.8616 96.587 57.5414C96.5354 61.0267 93.3821 62.6807 90.2805 62.6807C87.1789 62.6807 84.9381 61.1815 84.1772 58.9149C83.8967 58.025 84.3029 57.161 85.1702 56.8289H85.1638Z" fill="#A3ABB5"/>
<path d="M104.899 59.247C105.534 59.247 106.147 59.0697 106.653 58.7892C107.288 58.4345 108.333 58.2797 108.968 58.9149C109.68 59.6274 109.577 60.9235 108.739 61.5103C107.672 62.2745 106.324 62.6807 104.899 62.6807C101.491 62.6807 98.386 60.2884 98.386 56.5516V56.4742C98.386 52.7342 101.488 50.3451 104.899 50.3451C106.324 50.3451 107.672 50.7513 108.739 51.5155C109.577 52.099 109.68 53.3984 108.968 54.1109C108.333 54.7461 107.288 54.5945 106.653 54.2399C106.143 53.9594 105.534 53.782 104.899 53.782C103.374 53.782 102 54.8234 102 56.4774V56.5548C102 58.2088 103.374 59.2502 104.899 59.2502V59.247Z" fill="#A3ABB5"/>
<path d="M119.882 56.1164C119.882 54.5656 118.763 53.7756 117.696 53.7756C116.628 53.7756 115.355 54.3592 115.355 56.168V61.001C115.355 61.8908 114.542 62.5776 113.575 62.5776C112.608 62.5776 111.821 61.8651 111.795 61.001V45.5605C111.821 44.6964 112.634 43.9839 113.575 43.9839C114.517 43.9839 115.355 44.6706 115.355 45.5605V52.4279C115.838 50.9513 117.541 50.3419 118.663 50.3419C121.79 50.3419 123.444 52.4022 123.444 55.9874V60.9978C123.444 61.8876 122.632 62.5744 121.664 62.5744C120.697 62.5744 119.911 61.8618 119.885 60.9978V56.1132L119.882 56.1164Z" fill="#A3ABB5"/>
<path d="M125.756 56.4742C125.756 52.7342 128.529 50.3451 131.988 50.3451C135.448 50.3451 138.246 52.7374 138.246 56.4742C138.246 60.211 135.448 62.6807 131.988 62.6807C128.529 62.6807 125.756 60.2142 125.756 56.4742ZM134.684 56.4742C134.684 54.8718 133.462 53.7788 131.988 53.7788C130.515 53.7788 129.319 54.8718 129.319 56.4742C129.319 58.0766 130.541 59.247 131.988 59.247C133.436 59.247 134.684 58.1024 134.684 56.4742Z" fill="#A3ABB5"/>
<path d="M140.074 56.4742C140.074 52.7342 142.847 50.3451 146.307 50.3451C149.766 50.3451 152.565 52.7374 152.565 56.4742C152.565 60.211 149.766 62.6807 146.307 62.6807C142.847 62.6807 140.074 60.2142 140.074 56.4742ZM149.002 56.4742C149.002 54.8718 147.78 53.7788 146.307 53.7788C144.833 53.7788 143.637 54.8718 143.637 56.4742C143.637 58.0766 144.859 59.247 146.307 59.247C147.754 59.247 149.002 58.1024 149.002 56.4742Z" fill="#A3ABB5"/>
<path d="M158.591 61.001C158.591 61.8908 157.778 62.5776 156.811 62.5776C155.844 62.5776 155.057 61.8651 155.031 61.001V45.5605C155.057 44.6964 155.87 43.9839 156.811 43.9839C157.752 43.9839 158.591 44.6706 158.591 45.5605V61.001Z" fill="#A3ABB5"/>
<path d="M25.7264 61.7807L25.7725 61.8037C29.7031 63.7574 34.4732 62.1549 36.4269 58.2243L51.0891 28.7262C53.0428 24.7957 51.4403 20.0255 47.5098 18.0718L47.4636 18.0489C43.533 16.0952 38.7629 17.6977 36.8092 21.6283L22.147 51.1264C20.1933 55.0569 21.7958 59.827 25.7264 61.7807Z" fill="#A3ABB5"/>
<path d="M25.7264 61.7807L25.7725 61.8037C29.7031 63.7574 34.4732 62.1549 36.4269 58.2243L51.0891 28.7262C53.0428 24.7957 51.4403 20.0255 47.5098 18.0718L47.4636 18.0489C43.533 16.0952 38.7629 17.6977 36.8092 21.6283L22.147 51.1264C20.1933 55.0569 21.7958 59.827 25.7264 61.7807Z" fill="#A3ABB5"/>
<path d="M77.7579 22.1596C82.2433 22.1596 85.8795 18.9262 85.8795 14.9375C85.8795 10.9488 82.2433 7.71539 77.7579 7.71539C73.2724 7.71539 69.6362 10.9488 69.6362 14.9375C69.6362 18.9262 73.2724 22.1596 77.7579 22.1596Z" fill="#A3ABB5"/>
<path opacity="0.25" d="M77.8836 17.2975C75.2882 17.8908 72.8346 18.2874 70.7034 18.4905C71.0065 18.9612 71.3579 19.4029 71.7674 19.7995C73.7019 19.6222 75.9524 19.2643 78.3286 18.7194C81.1594 18.0713 83.7097 17.2653 85.699 16.4431C85.815 15.9563 85.8795 15.4565 85.8795 14.9375C85.8795 14.9084 85.8763 14.8794 85.8731 14.8504C83.6839 15.737 80.9305 16.5979 77.8836 17.2975Z" fill="#A3ABB5"/>
<path d="M72.8991 7.95711C72.7057 7.95711 72.5122 7.86361 72.3929 7.69273C72.2027 7.41545 72.2736 7.035 72.5509 6.84155C73.7309 6.03229 75.1109 5.51642 76.5392 5.34876C77.2001 5.26816 77.8675 5.26494 78.5253 5.33264C78.8606 5.36811 79.1056 5.66796 79.0701 6.00327C79.0347 6.33858 78.7348 6.57717 78.3995 6.54815C77.8353 6.49012 77.2582 6.49334 76.6875 6.56105C75.4526 6.70613 74.2629 7.15107 73.2473 7.85071C73.1409 7.92164 73.0216 7.95711 72.9023 7.95711H72.8991Z" fill="#A3ABB5"/>
<path d="M77.5806 23.1268C74.4048 23.1268 71.445 21.4341 69.8426 18.6227L69.3493 17.7586L70.3423 17.707C72.5412 17.5942 75.2817 17.1847 78.061 16.5463C80.8886 15.8982 83.5807 15.0567 85.641 14.1733L86.5534 13.7832L86.4921 14.773C86.2213 19.0644 82.923 22.5465 78.6445 23.0591C78.2899 23.101 77.9352 23.1236 77.5838 23.1236L77.5806 23.1268ZM71.4579 18.8612C73.0925 21.0214 75.7557 22.1757 78.4962 21.8533C81.8494 21.4535 84.5061 18.9354 85.1412 15.7048C83.1777 16.4657 80.8047 17.1815 78.3318 17.7457C75.875 18.3067 73.5246 18.6904 71.4579 18.8645V18.8612Z" fill="#A3ABB5"/>
<path d="M68.9979 18.974C67.331 18.974 65.0741 18.7516 64.7742 17.4361C64.5034 16.2754 65.8995 15.0535 69.0398 13.7058L69.8781 13.3447L69.891 14.2571C69.8942 14.5408 69.9135 14.8213 69.9458 15.1147C70.0683 16.1432 70.3907 17.1202 70.9034 18.0165L71.3966 18.8805L70.4036 18.9321C70.0715 18.9482 69.5685 18.974 68.9979 18.974ZM68.7238 15.1889C66.4153 16.2819 65.9543 17.017 65.9672 17.1653C66.022 17.3104 66.77 17.7747 69.4009 17.7424C69.0591 16.9525 68.8334 16.1207 68.7335 15.2566V15.2501C68.7335 15.2276 68.727 15.2082 68.727 15.1857L68.7238 15.1889Z" fill="#A3ABB5"/>
<path d="M85.2025 15.6951L85.2702 14.6988C85.3024 14.2184 85.2895 13.7638 85.2347 13.3028C85.1315 12.4645 84.9026 11.6649 84.5544 10.9233L84.1611 10.0883L85.0832 10.0496C88.4041 9.91739 90.1419 10.4075 90.4063 11.5585C90.6771 12.7289 89.2746 13.954 86.1214 15.3017L85.2025 15.6951ZM86.0085 11.2522C86.2213 11.8616 86.3696 12.4967 86.447 13.1544C86.4728 13.364 86.4889 13.5768 86.4986 13.7896C88.7748 12.7063 89.223 11.9808 89.2101 11.8325C89.1617 11.6971 88.475 11.249 86.0053 11.2522H86.0085Z" fill="#A3ABB5"/>
<path d="M69.5493 6.62234C69.5493 6.62234 73.1184 2.92745 76.033 2.92745C77.3227 2.92745 78.5382 3.24342 79.6086 3.8012C80.1116 4.06236 80.7242 3.94951 81.0982 3.52715L81.8591 2.66307C82.1944 2.28262 81.988 1.67971 81.4883 1.58943L72.9636 0.00959288C72.7508 -0.029097 72.5348 0.0386103 72.3833 0.190146L66.3993 6.15483C66.0253 6.52883 66.2252 7.17044 66.7475 7.26072L68.0661 7.48963H68.1081C68.5143 7.51865 68.9044 7.34455 69.1559 7.02535L69.5428 6.61911L69.5493 6.62234Z" fill="#A3ABB5"/>
<path d="M69.5105 7.95389C69.5105 7.95389 73.4279 3.8979 76.6295 3.8979C78.0449 3.8979 79.3829 4.24611 80.5565 4.85547C81.1078 5.14242 81.7817 5.0199 82.1944 4.5524L83.0294 3.6045C83.397 3.18536 83.1713 2.52441 82.6232 2.42446L73.2602 0.693088C73.0281 0.651174 72.7895 0.725329 72.6218 0.889761L66.0542 7.43802C65.6416 7.84749 65.864 8.55358 66.4379 8.65353L67.8856 8.90501H67.9339C68.3789 8.93725 68.8077 8.74703 69.0849 8.3956L69.5105 7.94744V7.95389Z" fill="#A3ABB5"/>
<path d="M82.6199 2.42774L73.257 0.696364C73.128 0.673795 72.999 0.686691 72.8765 0.731829L74.0308 3.65291C74.1984 4.0785 74.6659 4.30419 75.1012 4.16233C75.6171 3.99467 76.1329 3.89795 76.6294 3.89795C78.0448 3.89795 79.3829 4.24616 80.5565 4.85552C81.1078 5.14247 81.7816 5.01996 82.1943 4.55245L83.0294 3.60455C83.3969 3.18541 83.1713 2.52446 82.6231 2.42451L82.6199 2.42774Z" fill="#A3ABB5"/>
<path d="M78.1254 8.2506C80.4436 8.2506 82.5457 9.07599 84.0837 10.4108C82.5941 8.76647 80.3179 7.71539 77.7579 7.71539C73.2731 7.71539 69.6362 10.9492 69.6362 14.9375C69.6362 14.9697 69.6427 15.002 69.6427 15.0342C70.0941 11.2233 73.718 8.2506 78.1254 8.2506Z" fill="#A3ABB5"/>
<path d="M70.0296 18.9516L69.8426 18.6259C69.2461 17.5845 68.8721 16.4528 68.7302 15.2599C68.6948 14.9214 68.6722 14.6022 68.669 14.2798C68.6496 12.0938 69.4331 9.98195 70.8775 8.33118C71.1 8.07648 71.4869 8.05068 71.7416 8.27315C71.9963 8.49562 72.0221 8.88252 71.7996 9.13722C70.5519 10.5623 69.8748 12.3807 69.8942 14.2636C69.8974 14.5441 69.9167 14.8246 69.949 15.1213C70.0554 16.0208 70.3165 16.8849 70.7292 17.6909C72.8604 17.5523 75.4462 17.1525 78.0642 16.5528C80.7338 15.9434 83.2809 15.1567 85.2895 14.3281C85.296 13.9831 85.2798 13.6446 85.2379 13.3028C85.1348 12.4646 84.9058 11.665 84.5576 10.9234C83.7032 9.11143 82.1331 7.67346 80.2502 6.97704C79.9342 6.86097 79.7698 6.50954 79.8891 6.19357C80.0051 5.8776 80.3566 5.71317 80.6725 5.83246C82.8553 6.63528 84.6737 8.30217 85.6635 10.4011C86.0698 11.2587 86.3341 12.184 86.4534 13.1545C86.5179 13.6833 86.534 14.2314 86.4953 14.7827L86.4696 15.1567L86.1246 15.305C83.9998 16.2142 81.2335 17.0815 78.3382 17.7457C75.4526 18.4067 72.7089 18.8161 70.41 18.9354L70.036 18.9548L70.0296 18.9516Z" fill="#A3ABB5"/>
<path d="M55.1274 61.8013L55.1303 61.8027C59.0844 63.7407 63.861 62.1063 65.799 58.1521L76.2508 36.8266C78.1888 32.8724 76.5544 28.0958 72.6002 26.1579L72.5973 26.1564C68.6431 24.2185 63.8666 25.8529 61.9286 29.8071L51.4767 51.1326C49.5387 55.0868 51.1732 59.8633 55.1274 61.8013Z" fill="#A3ABB5"/>
<path d="M5.35583 5.74358L5.35293 5.745C1.39876 7.68298 -0.235685 12.4595 1.7023 16.4137L22.1591 58.1528C24.0971 62.107 28.8736 63.7414 32.8278 61.8034L32.8307 61.802C36.7849 59.864 38.4193 55.0875 36.4813 51.1333L16.0245 9.39421C14.0865 5.44003 9.31 3.80559 5.35583 5.74358Z" fill="#A3ABB5"/>
<path d="M3.2509 16.7944C1.26482 12.7449 2.58995 7.94414 6.15909 5.42285C5.88504 5.5228 5.61098 5.63565 5.34015 5.76461C1.38734 7.70233 -0.247307 12.4805 1.69041 16.4366L22.1445 58.1732C22.8344 59.5822 23.8919 60.6913 25.1365 61.4554L3.2509 16.7944Z" fill="#A3ABB5"/>
<path d="M51.1525 21.6531C49.1925 17.7098 44.4069 16.1021 40.4636 18.0621C36.5203 20.0222 34.9126 24.8077 36.8726 28.751L51.5019 58.1828C53.4619 62.1261 58.2475 63.7338 62.1908 61.7738C66.1341 59.8137 67.7418 55.0281 65.7818 51.0848L51.1525 21.6531Z" fill="#CCD3DD"/>
<path d="M52.3644 58.183L37.7332 28.7497C35.7729 24.8066 37.3818 20.0219 41.3249 18.0616C42.3018 17.5748 43.3336 17.3104 44.3588 17.2427C43.0273 17.1685 41.6602 17.4232 40.3835 18.0616C36.4403 20.0219 34.8315 24.8066 36.7917 28.7497L51.423 58.183C52.8964 61.1492 55.969 62.7903 59.0771 62.5904C56.3043 62.4389 53.6895 60.8462 52.3644 58.183Z" fill="#A3ABB5"/>
<path d="M67.9468 11.2618C67.9468 11.7422 67.5567 12.1324 67.0763 12.1324C66.5959 12.1324 66.2057 11.7422 66.2057 11.2618C66.2057 10.9749 66.512 10.1044 66.7635 9.44342C66.8731 9.15647 67.2794 9.15647 67.389 9.44342C67.6373 10.1044 67.9468 10.9781 67.9468 11.2618Z" fill="#A3ABB5"/>
</g>
<defs>
<clipPath id="clip0_5_162">
<rect width="157.716" height="62.6808" fill="white" transform="translate(0.874695)"/>
</clipPath>
</defs>
</svg>
